<svg xmlns="http://www.w3.org/2000/svg" width="16" height="12.571" viewBox="0 0 16 12.571">
    <defs>
        <style>
            .prefix__cls-1{fill:#6c63ff}
        </style>
    </defs>
    <g id="prefix__envelope_2_" data-name="envelope (2)" transform="translate(0 -54.82)">
        <g id="prefix__Group_3992" data-name="Group 3992" transform="translate(0 54.82)">
            <path id="prefix__Path_5955" d="M1.536 58.695q.3.214 1.83 1.272T5.705 61.6l.379.272q.29.209.482.339.192.129.464.29a2.694 2.694 0 0 0 .513.241 1.415 1.415 0 0 0 .446.08h.018a1.416 1.416 0 0 0 .446-.08 2.7 2.7 0 0 0 .513-.241q.272-.161.464-.29t.482-.339q.29-.21.379-.272l4.179-2.9a4.242 4.242 0 0 0 1.089-1.1A2.358 2.358 0 0 0 16 56.249a1.441 1.441 0 0 0-1.429-1.429H1.429a1.275 1.275 0 0 0-1.058.464A1.8 1.8 0 0 0 0 56.445a2.086 2.086 0 0 0 .491 1.219 4.432 4.432 0 0 0 1.045 1.031z" class="prefix__cls-1" data-name="Path 5955" transform="translate(0 -54.82)"/>
            <path id="prefix__Path_5956" d="M15.107 185.214q-2.928 1.982-4.446 3.08-.509.375-.826.585a5.1 5.1 0 0 1-.844.428 2.569 2.569 0 0 1-.982.219h-.018a2.57 2.57 0 0 1-.982-.219 5.1 5.1 0 0 1-.844-.428q-.317-.21-.826-.585-1.205-.884-4.439-3.08a4.729 4.729 0 0 1-.9-.777v7.089a1.375 1.375 0 0 0 .42 1.009 1.375 1.375 0 0 0 1.009.42h13.142A1.433 1.433 0 0 0 16 191.526v-7.089a4.924 4.924 0 0 1-.893.777z" class="prefix__cls-1" data-name="Path 5956" transform="translate(0 -180.384)"/>
        </g>
    </g>
</svg>
