<svg xmlns="http://www.w3.org/2000/svg" width="708.372" height="559.003" viewBox="0 0 708.372 559.003">
    <defs>
        <style>
            .prefix__cls-2{fill:#f4692d}.prefix__cls-3{fill:#a794c7}.prefix__cls-4{fill:#9dbbc3}.prefix__cls-5{fill:#e7f7fb}.prefix__cls-6{fill:#735c7b}.prefix__cls-7{fill:#b8a39c}.prefix__cls-8{fill:#6c767a}.prefix__cls-9{fill:#a0a19d}.prefix__cls-11{fill:#44435a}.prefix__cls-12{fill:#ee2b3a}.prefix__cls-13{fill:#f9e21d}.prefix__cls-14{fill:#bedd15}.prefix__cls-15{fill:#e42630}.prefix__cls-16{fill:#fbcc1e}.prefix__cls-18{fill:#9dc021}.prefix__cls-19{fill:#ddd3e9}.prefix__cls-21{fill:#8c78b3}.prefix__cls-75{fill:none;stroke-miterlimit:10;stroke-linecap:round}.prefix__cls-25{fill:#493226}.prefix__cls-26{fill:#8b2f23}.prefix__cls-27{fill:#f8a478}.prefix__cls-28{fill:#e6624f}.prefix__cls-30{fill:#969797}.prefix__cls-31{fill:#fff}.prefix__cls-33{fill:#18222d}.prefix__cls-34{fill:#212e3d}.prefix__cls-35{fill:#a0443a}.prefix__cls-39{fill:#1d2a38}.prefix__cls-42{fill:#1a2533}.prefix__cls-44{fill:#61241d}.prefix__cls-45{fill:#b4795a}.prefix__cls-59{fill:#bddd15}.prefix__cls-71{fill:#bec4bb}.prefix__cls-75{stroke:#778f9a;stroke-width:7.158px}.prefix__cls-76{fill:#778f9a}.prefix__cls-77{fill:#dddecc}.prefix__cls-78{fill:#b8a794}.prefix__cls-80{fill:#727b7a}.prefix__cls-85{fill:#f9e81e}.prefix__cls-87{fill:#f6c619}.prefix__cls-88{fill:#b12226}
        </style>
    </defs>
    <g id="prefix__g10" transform="translate(-61.304 1097.317)">
        <g id="prefix__g12" transform="translate(61.304 -1097.317)">
            <path id="prefix__path14" d="M608.622-1042.42h-2.329l.19-.023c-2.321-.145-4.155-3.631-4.133-7.923s1.91-7.756 4.224-7.923l-.076-.007-.1-.008h.335l.015-.008.016.008h2.463v.8h-.606v15.085" transform="translate(-257.143 1079.049)" style="fill:#c2b3d8"/>
            <path id="prefix__path16" d="M837.235-175.656a7.634 7.634 0 0 0 7.611-7.612v-20.747a7.634 7.634 0 0 0-7.611-7.611h-3.862a7.633 7.633 0 0 0-7.611 7.611v20.747a7.633 7.633 0 0 0 7.611 7.612h3.862" class="prefix__cls-2" transform="translate(-336.276 682.496)"/>
            <path id="prefix__path18" d="M968.32-85.2H794.757v-1.18a2.091 2.091 0 0 0-.861-1.9 4.543 4.543 0 0 0 .533-3.638l-.031-.175h91.087v.369a3.788 3.788 0 0 0 1.045 2.612 3.8 3.8 0 0 0 2.759 1.192H930.287q.193.015.395.016h.077c.127 0 .266 0 .414-.017h6.205a3.811 3.811 0 0 0 3.281-1.886h19.492l.03.024a5.683 5.683 0 0 0 3.517 1.294h.057a5.577 5.577 0 0 0 2.748-.8l.008-.005.011-.006.012-.006h.006a8.534 8.534 0 0 0 2.352-2.207c.125-.172.234-.327.333-.472a3.548 3.548 0 0 1 2.9 3.347 3.651 3.651 0 0 1-3.806 3.44m-190.056 0h-16.782a12.265 12.265 0 0 0-.624-1.2l.251.024s.069-2.1.2-5.709h16.128q.229 1.632.456 2.831a4.679 4.679 0 0 0 .853 2.024 6.921 6.921 0 0 0-.479 2.032m-34.176-3.069a2.89 2.89 0 0 1-.023-.373 2.9 2.9 0 0 1 .076-.678v-.015.015c-.023.434-.038.784-.053 1.051" class="prefix__cls-3" transform="translate(-264.106 626.508)"/>
            <path id="prefix__path20" d="M1148.474-115.179a4 4 0 0 1-.906-.076 4.472 4.472 0 0 1-1.728-.785c-2.291-1.62-4.072-5.419-4.711-10.16a28.376 28.376 0 0 1-.259-3.669c-.061-6.591 2.024-12.261 4.97-14.339a4.437 4.437 0 0 1 1.721-.783 3.737 3.737 0 0 1 .654-.084c4.125-.145 7.527 6.431 7.6 14.69a27.654 27.654 0 0 1-.266 4.186c-.853 6.249-3.684 10.9-7.078 11.021m9.742-16.226a28.835 28.835 0 0 0-.593-4.833c-.944-4.392-2.581-6.805-3.783-8.053a5.943 5.943 0 0 0-4.376-2.063 5.307 5.307 0 0 0-2.428.593 6.316 6.316 0 0 0-1.12.723 6.269 6.269 0 0 0-.593.51c-.129.122-.251.243-.365.373a14.582 14.582 0 0 0-3.166 6.051 22.034 22.034 0 0 0-.532 2.169 22.239 22.239 0 0 0-.366 2.329 23.7 23.7 0 0 0-.182 2.474c-.016.381-.008.89-.016 1.279a32.26 32.26 0 0 0 .228 3.486c0 .03.008.091.015.168.061.418.206 1.4.381 2.184a20.437 20.437 0 0 0 1.827 5.275 12.4 12.4 0 0 0 2.184 3.014 6.378 6.378 0 0 0 .585.51l.03.024a5.683 5.683 0 0 0 3.517 1.294 5.584 5.584 0 0 0 2.847-.822 8.536 8.536 0 0 0 2.352-2.207 14.184 14.184 0 0 0 1.354-2.268 20.338 20.338 0 0 0 .792-1.9 24.825 24.825 0 0 0 1.081-4.376 30.01 30.01 0 0 0 .327-5.937" class="prefix__cls-4" transform="translate(-449.869 651.925)"/>
            <path id="prefix__path22" d="M1155.51-114.416l-.083.036-.086.035-.089.034-.092.033-.095.031-.1.029-.1.027-.1.025-.1.023-.1.019-.1.017-.1.014-.1.011-.094.009-.091.006h-.088.088l.091-.006.094-.009.1-.011.1-.014.1-.017.1-.019.1-.023.1-.025.1-.027.1-.029.095-.031.092-.033.089-.034.086-.035.083-.036m-1.5.354H1152.561h.133c4.117-.144 7.4-6.935 7.324-15.17-.071-8.146-3.395-14.652-7.452-14.652h1.317a3.9 3.9 0 0 1 1.314.231l.059.021a5.081 5.081 0 0 1 1.367.788 7.774 7.774 0 0 1 1.318 1.362 11.84 11.84 0 0 1 1.093 1.732 19.314 19.314 0 0 1 1.665 4.734 26.189 26.189 0 0 1 .459 2.783 29.449 29.449 0 0 1 .178 3c.045 5.147-1.219 9.73-3.179 12.479a8.415 8.415 0 0 1-1.254 1.419 4.6 4.6 0 0 1-2.892 1.273" class="prefix__cls-5" transform="translate(-455.428 650.768)"/>
            <path id="prefix__path24" d="M1156.844-129.225a27.528 27.528 0 0 1-.266 4.186c-.814 5.967-3.433 10.465-6.629 10.945a4.042 4.042 0 0 1-.434.037h-3.608a4.079 4.079 0 0 0 1.8-.51 3.262 3.262 0 0 0 .51-.313c2.314-1.606 4.1-5.419 4.749-10.16a28.691 28.691 0 0 0 .259-4.186c-.054-6.432-2.139-11.836-5.009-13.823a4.2 4.2 0 0 0-.517-.319 4 4 0 0 0-1.925-.51h3.615a3.331 3.331 0 0 1 .548.046c3.8.548 6.835 6.819 6.9 14.606" class="prefix__cls-5" transform="translate(-452.25 650.765)"/>
            <path id="prefix__path26" d="M1134.93-129.225a28.691 28.691 0 0 1-.26 4.186c-.647 4.742-2.435 8.554-4.749 10.16a3.256 3.256 0 0 1-.51.313 4.08 4.08 0 0 1-1.8.51h-20.778c3.387-.121 6.218-4.749 7.063-10.982a27.559 27.559 0 0 0 .267-4.186c-.076-8.152-3.395-14.652-7.451-14.652h20.771a4 4 0 0 1 1.925.51 4.164 4.164 0 0 1 .518.319c2.869 1.987 4.955 7.39 5.009 13.823" class="prefix__cls-2" transform="translate(-433.951 650.765)"/>
            <path id="prefix__path28" d="M1110.177-129.225a27.543 27.543 0 0 1-.267 4.186c-.845 6.233-3.676 10.861-7.063 10.982h-4.521c3.387-.121 6.211-4.741 7.063-10.967a28.726 28.726 0 0 0 .266-4.2c-.076-8.152-3.395-14.652-7.452-14.652h4.521c4.057 0 7.376 6.5 7.452 14.652" class="prefix__cls-5" transform="translate(-429.968 650.765)"/>
            <path id="prefix__path30" d="M1085.326-115.74c-3.127.106-5.837-3.646-6.994-9.065a24.5 24.5 0 0 1-.4-2.473 27.36 27.36 0 0 1-.2-3.113c-.068-8.235 3.212-15.024 7.33-15.169s7.512 6.416 7.58 14.652c.008.814-.015 1.613-.076 2.4-.016.243-.038.487-.061.73-.662 6.759-3.6 11.92-7.186 12.041m10.245-21.144a20.947 20.947 0 0 0-1.758-5.175 12.867 12.867 0 0 0-2.185-3.174c-.1-.1-.22-.213-.342-.327a6.53 6.53 0 0 0-.563-.487 6.869 6.869 0 0 0-1.15-.746 6.423 6.423 0 0 0-1.34-.5 5.957 5.957 0 0 0-1.385-.175 5.953 5.953 0 0 0-2.687.654 8.281 8.281 0 0 0-2.253 1.743 15.458 15.458 0 0 0-3.3 6.287 21.244 21.244 0 0 0-.547 2.215c-.167.829-.167.829-.373 2.382-.083.639-.1.853-.183 2.512-.023.388-.016.913-.016 1.3.023.959.046 1.948.183 3.173l.046.381c.122.936.243 1.644.41 2.405.077.35.16.708.252 1.1.228.921.692 2.207.723 2.291a17.612 17.612 0 0 0 1.324 2.786 12.166 12.166 0 0 0 .7 1.057c.266.343.639.784.928 1.1a8.141 8.141 0 0 0 1.385 1.165 6.1 6.1 0 0 0 3.4 1.072 5.856 5.856 0 0 0 2.991-.813l.038-.03a7.043 7.043 0 0 0 .7-.457l.053-.046a8.234 8.234 0 0 0 .67-.556 10.393 10.393 0 0 0 1.21-1.362 17.3 17.3 0 0 0 2.6-5.465 25.074 25.074 0 0 0 .746-3.342c.046-.274.084-.548.114-.814a30.685 30.685 0 0 0-.388-10.161" class="prefix__cls-4" transform="translate(-420.265 652.448)"/>
            <path id="prefix__path32" d="M1094.813-84.221h-.077q-.2 0-.395-.016.192.015.395.016h.058c.128 0 .269 0 .42-.017h.013c-.148.012-.287.017-.414.017" class="prefix__cls-6" transform="translate(-428.159 622.833)"/>
            <path id="prefix__path34" d="M1161.4-99.747h-.047c.1-.127.2-.262.307-.408a19.009 19.009 0 0 0 2.919-8.289h.033a18.439 18.439 0 0 1-3.211 8.7m-1.364 0a18.326 18.326 0 0 0 3.223-8.7h.005a18.282 18.282 0 0 1-3.225 8.7" class="prefix__cls-7" transform="translate(-458.925 634.17)"/>
            <path id="prefix__path36" d="M1158.534-89.289l.011-.006-.011.006m.023-.013h.006a8.533 8.533 0 0 0 2.352-2.207c.125-.172.234-.327.332-.472-.1.145-.208.3-.332.472a8.535 8.535 0 0 1-2.352 2.207h-.006m-3.941-.459a4.016 4.016 0 0 1-.569-.039h.661a4.6 4.6 0 0 0 2.892-1.273 7.946 7.946 0 0 0 .947-1.011h.047a5.309 5.309 0 0 1-3.867 2.324h-.111m1.323-1.03a7.55 7.55 0 0 0 1.288-1.3 7.509 7.509 0 0 1-1.291 1.3" class="prefix__cls-6" transform="translate(-456.123 626.508)"/>
            <path id="prefix__path38" d="M1154.111-96.144h-.049a5.683 5.683 0 0 1-3.516-1.294l-.031-.024h1.878a4.021 4.021 0 0 0 .569.039h.111a5.309 5.309 0 0 0 3.867-2.324 18.436 18.436 0 0 0 3.211-8.7 6.049 6.049 0 0 0 2.14.748 1.036 1.036 0 0 0 .2-.017 24.814 24.814 0 0 1-1.081 4.376 20.381 20.381 0 0 1-.792 1.9 15.625 15.625 0 0 1-1.022 1.8c-.1.145-.208.3-.333.472a8.533 8.533 0 0 1-2.352 2.207h-.006l-.012.006-.011.006-.009.005a5.576 5.576 0 0 1-2.748.8h-.009" class="prefix__cls-8" transform="translate(-454.469 634.17)"/>
            <path id="prefix__path40" d="M1153.881-97.461h-1.188a4.026 4.026 0 0 0 .434-.037 4.584 4.584 0 0 0 2.118-.953 7.5 7.5 0 0 0 1.291-1.3 18.281 18.281 0 0 0 3.225-8.7h1.317a19.01 19.01 0 0 1-2.919 8.289c-.1.146-.207.281-.307.408a7.945 7.945 0 0 1-.947 1.011 4.6 4.6 0 0 1-2.891 1.273h-.133" class="prefix__cls-9" transform="translate(-455.428 634.17)"/>
            <path id="prefix__path42" d="M1149.628-97.462h-3.608a4.079 4.079 0 0 0 1.8-.51 3.251 3.251 0 0 0 .51-.313c2.314-1.606 4.1-5.419 4.749-10.16h3.608a18.321 18.321 0 0 1-3.223 8.7 7.552 7.552 0 0 1-1.288 1.3 4.584 4.584 0 0 1-2.118.953 4.03 4.03 0 0 1-.434.037" class="prefix__cls-9" transform="translate(-452.364 634.17)"/>
            <path id="prefix__path44" d="M1130.953-97.462h-17.1a3.772 3.772 0 0 0 .521-1.916v-.851a19.073 19.073 0 0 0 2.867-8.216h20.778c-.647 4.742-2.435 8.554-4.75 10.16a3.243 3.243 0 0 1-.51.313 4.08 4.08 0 0 1-1.8.51" transform="translate(-437.297 634.17)" style="fill:#b94620"/>
            <path id="prefix__path46" d="M1114.83-100.228v-8.216h2.867a19.068 19.068 0 0 1-2.867 8.216" class="prefix__cls-9" transform="translate(-437.756 634.17)"/>
            <path id="prefix__path48" d="M1094.794-84.221h-.058q-.2 0-.395-.016h.872c-.151.012-.291.017-.42.017" class="prefix__cls-8" transform="translate(-428.159 622.833)"/>
            <path id="prefix__path50" d="M1092.835-128.691c.007.555-.007 1.111-.037 1.651-.343 7.138-3.317 12.779-6.992 12.91-3.755.132-6.889-5.553-7.247-12.91-.022-.38-.037-.767-.037-1.155-.066-7.905 3.083-14.422 7.036-14.561s7.211 6.159 7.277 14.064" class="prefix__cls-11" transform="translate(-420.75 650.241)"/>
            <path id="prefix__path52" d="M1091.829-129.7l-1.142.012v.282c0 .433-.014.868-.036 1.3a20.763 20.763 0 0 1-2.113 8.6 8.032 8.032 0 0 1-1.871 2.417 3.178 3.178 0 0 1-1.909.809h-.091a3.08 3.08 0 0 1-1.915-.749 9.674 9.674 0 0 1-2.705-4.147 22.783 22.783 0 0 1-1.359-6.93v-.01c-.021-.365-.034-.73-.034-1.089v-.009-.234a22.243 22.243 0 0 1 1.934-9.528 8.769 8.769 0 0 1 1.964-2.733 3.275 3.275 0 0 1 2.037-.916h.088a3.145 3.145 0 0 1 2.019.833 10.42 10.42 0 0 1 2.787 4.578 23.966 23.966 0 0 1 1.2 7.524l1.142-.012 1.141-.01a24.054 24.054 0 0 0-2.263-10.474 10.6 10.6 0 0 0-2.546-3.361 5.416 5.416 0 0 0-3.482-1.364h-.17a5.549 5.549 0 0 0-3.461 1.482 13.008 13.008 0 0 0-3.423 5.7 26.557 26.557 0 0 0-1.253 8.28v.253-.01c0 .416.016.825.038 1.22v-.01a22.815 22.815 0 0 0 2.445 9.678 10.04 10.04 0 0 0 2.484 3.08 5.355 5.355 0 0 0 3.331 1.241h.165a5.459 5.459 0 0 0 3.279-1.328 12.089 12.089 0 0 0 3.347-5.135 25.108 25.108 0 0 0 1.466-7.534v.005c.024-.461.04-.936.04-1.416v-.306l-1.141.01" class="prefix__cls-12" transform="translate(-419.743 651.247)"/>
            <path id="prefix__path54" d="M214.193-89.693a4.58 4.58 0 0 0-4.566-4.567h-23.394a4.58 4.58 0 0 0-4.566 4.567v1.59a4.579 4.579 0 0 0 4.566 4.566h23.394a4.579 4.579 0 0 0 4.566-4.566v-1.59" class="prefix__cls-12" transform="translate(-117.677 627.526)"/>
            <path id="prefix__path56" d="M488.693-96.911a4.58 4.58 0 0 0-4.567-4.567H440.6a4.58 4.58 0 0 0-4.566 4.567v1.59a4.58 4.58 0 0 0 4.566 4.566h43.529a4.58 4.58 0 0 0 4.567-4.566v-1.59" class="prefix__cls-13" transform="translate(-193.553 630.907)"/>
            <path id="prefix__path58" d="M615.288-712.581v-380.17a4.58 4.58 0 0 1 4.567-4.567h3.351a4.58 4.58 0 0 1 4.566 4.567v5.479a4.58 4.58 0 0 0 4.567 4.566h4.14c2.512 0 4.566-1.575 4.566-3.5s1.978-3.5 4.395-3.5a4.5 4.5 0 0 1 4.395 4.566v7.81l-34.548 364.75" class="prefix__cls-14" transform="translate(-258.897 1097.318)"/>
            <path id="prefix__path60" d="M398.263-626.015v-40.323a4.58 4.58 0 0 1 4.566-4.566h3.351a4.58 4.58 0 0 1 4.567 4.566v5.479a4.58 4.58 0 0 0 4.566 4.566h16.319c2.512 0 4.567-1.575 4.567-3.5s2.054-3.5 4.566-3.5h2.7a4.58 4.58 0 0 1 4.566 4.567v1.72c0 2.512 1.482 4.566 3.294 4.566h3.293" class="prefix__cls-13" transform="translate(-179.956 897.603)"/>
            <path id="prefix__path62" d="M65.871-200.68a4.58 4.58 0 0 1-4.567-4.566v-46.287a4.58 4.58 0 0 1 4.567-4.566h57.14a4.58 4.58 0 0 1 4.566 4.566v46.287a4.58 4.58 0 0 1-4.566 4.566h-57.14" class="prefix__cls-15" transform="translate(-61.304 703.326)"/>
            <path id="prefix__path64" d="M234.35-327.877a4.58 4.58 0 0 1-4.566-4.566v-191.021a4.58 4.58 0 0 1 4.566-4.566h57.139a4.58 4.58 0 0 1 4.567 4.566v191.021a4.58 4.58 0 0 1-4.567 4.566H234.35" class="prefix__cls-16" transform="translate(-120.26 830.687)"/>
            <path id="prefix__path66" d="M796.93-452.695a4.58 4.58 0 0 1 4.567 4.566v151.734a4.58 4.58 0 0 1-4.567 4.566h-57.144a4.58 4.58 0 0 1-4.566-4.566v-151.733a4.58 4.58 0 0 1 4.566-4.566h57.144" class="prefix__cls-2" transform="translate(-297.127 795.403)"/>
            <path id="prefix__path68" d="M789.082-379.827v-.167c.038-2.436.106-4.711.221-6.8l.023-.062c.182-.023.357-.053.525-.075a72.568 72.568 0 0 1 .054-7.406l1.514-29.653c2.664-2.413 6.218-5.579 9.164-7.923 3.212-2.565 3.448-6.934 2.77-11.059v-.023a10.308 10.308 0 0 0-.2-1.058l-.023-.145a56.709 56.709 0 0 0-1.873-6.538q-.331-.971-.685-1.964h-50.825a28.934 28.934 0 0 1 .22 4l-.121 17.392c-.137 19.682-2.42 33.352-.244 35.437l-.023 3.029v.556l-.023 3.3-.008.548c-.068 13.761-1.766 62.419-3.006 96.6h17.079c1.134-28.458 2.77-64.2 4.041-70.874a9.181 9.181 0 0 1 4.255-6.112c.008.54.023 1.08.038 1.621.456 18.289 2.017 50.256 3.8 75.365h16.813c-1.72-24.918-3.2-57.821-3.478-77.823l9.415 29.256a1.529 1.529 0 0 0 1.377 1.18 1.187 1.187 0 0 0 .586-.152 2.168 2.168 0 0 0 .821-2.519l-12.208-37.941" transform="translate(-302.48 795.403)" style="fill:#d95a2b"/>
            <path id="prefix__path70" d="M402.829-378.152a4.58 4.58 0 0 1-4.566-4.566v-249.715a4.58 4.58 0 0 1 4.566-4.567h57.139a4.58 4.58 0 0 1 4.567 4.567v249.714a4.58 4.58 0 0 1-4.567 4.566h-57.139" class="prefix__cls-13" transform="translate(-179.216 881.724)"/>
            <path id="prefix__path72" d="M573.4-496.425a4.58 4.58 0 0 1-4.567-4.566v-400.22a4.58 4.58 0 0 1 4.567-4.567h3.351a4.58 4.58 0 0 1 4.566 4.567v14.111a4.58 4.58 0 0 0 4.566 4.566h2.663a4.58 4.58 0 0 0 4.566-4.566v-14.111a4.58 4.58 0 0 1 4.566-4.567h32.862a4.58 4.58 0 0 1 4.566 4.567v400.219a4.58 4.58 0 0 1-4.566 4.566H573.4" class="prefix__cls-14" transform="translate(-238.904 1007.608)"/>
            <path id="prefix__path74" d="M656.328-1056.795v407.778l-42.18-9.894v-397.883h42.18" class="prefix__cls-14" transform="translate(-257.633 1078.338)"/>
            <path id="prefix__path76" d="M662.555-1057.5h-1.9l.009-.8a2.625 2.625 0 0 1 1.5.487 3.535 3.535 0 0 1 .388.312" class="prefix__cls-18" transform="translate(-278.787 1079.042)"/>
            <path id="prefix__path78" d="M669.084-769.043c-2.733-3.1-3.379-4.833-3.737-6.539-.35-1.628-2.5-4.863 3.737-24.652v31.19m0-127.645l-25.215-124.3a2.354 2.354 0 0 1-.091-1.05 1.822 1.822 0 0 1-.213-.457l-2.047-6.652a3 3 0 0 1 .936-3.227l12.064-8.3-.9-2.025a3.532 3.532 0 0 1-.578.5 2.744 2.744 0 0 1-1.515.494l-.03-.008h-.023l-.008.008.166-15.085h1.9a4.572 4.572 0 0 1 .784.906 10.174 10.174 0 0 1 1.538 4.674 14.768 14.768 0 0 1 .076 1.56c0 .281-.015.563-.031.837-.015.205-.03.418-.06.624-.023.266-.061.525-.106.769-.016.121-.039.243-.061.357-.031.16-.062.312-.1.464-.023.107-.054.206-.076.3-.031.138-.069.259-.1.381l-.031.091-.031.084-.038.106 1.812 4.08a2.984 2.984 0 0 1 .167 1.895 2.413 2.413 0 0 1-.943 1.491l-12.224 8.4 1.864 6.043a2.554 2.554 0 0 1 .069.35 1.819 1.819 0 0 1 .617.906l22.43 108.5v17.285" class="prefix__cls-18" transform="translate(-268.992 1078.338)"/>
            <path id="prefix__path80" d="M821.293-119.261h-16.965c-.921-6.431-1.91-17.7-2.839-30.848h14.276a7.7 7.7 0 0 0 2.7 2.389c.934 13.032 1.926 23.578 2.823 28.459" class="prefix__cls-19" transform="translate(-327.443 653.684)"/>
            <path id="prefix__path82" d="M831.047-147.72a7.7 7.7 0 0 1-2.705-2.389h2.537l.168 2.389" transform="translate(-339.522 653.684)" style="fill:#da5826"/>
            <path id="prefix__path84" d="M824.152-85.2h-16.493a6.923 6.923 0 0 1 .479-2.032 4.679 4.679 0 0 1-.853-2.024q-.228-1.2-.457-2.831h16.965l.03.175a4.543 4.543 0 0 1-.533 3.638 2.092 2.092 0 0 1 .86 1.9v1.18" class="prefix__cls-21" transform="translate(-329.714 626.508)"/>
            <path id="prefix__path86" d="M744.21-116.506c.023-.708.053-1.629.1-2.755.22-5.906.647-17.224 1.141-30.848h17.079c-.517 12.924-.928 24.34-1.157 30.848h-13.434a3.747 3.747 0 0 0-3.729 2.755" class="prefix__cls-19" transform="translate(-307.041 653.684)"/>
            <path id="prefix__path88" d="M761.5-85.2h-13.607a3.7 3.7 0 0 1-3.782-3.067c.015-.266.03-.617.053-1.051v-.015a3.747 3.747 0 0 1 3.729-2.755h13.433c-.129 3.607-.2 5.709-.2 5.709l-.251-.024a12.252 12.252 0 0 1 .624 1.2" class="prefix__cls-21" transform="translate(-307.125 626.508)"/>
            <path id="prefix__path90" d="M775.727-609.8H724.9a15.014 15.014 0 0 0-4.681-9.1l-.023-.031-.008-.008q-.308-.32-.639-.64l-.008-.008c-.068-.068-.137-.129-.2-.19-.145-.137-.281-.274-.426-.411-.16-.145-.32-.3-.479-.442-.061-.06-.122-.121-.191-.182-.175-.159-.358-.328-.548-.495l-.145-.13-.625-.555-.084-.069c-1.218-1.073-2.587-2.238-4.125-3.554-.252-.221-.51-.449-.777-.678l-.175-.145c-.258-.228-.532-.464-.807-.7-.076-.068-.152-.137-.227-.2-.267-.236-.541-.472-.815-.715-.091-.077-.182-.16-.273-.244-.274-.236-.548-.479-.822-.723-.114-.1-.228-.2-.335-.3-.274-.235-.541-.479-.814-.723l-.441-.4-.761-.693c-.411-.373-.822-.754-1.249-1.141-4.277-3.623-7.337-6.4-9.536-8.616l-.031-.031c-.836-.844-1.56-1.6-2.168-2.3v-31.2c.152-.486.3-.979.471-1.487 3.463-10.724 6.66-20.489 6.667-20.581a5.1 5.1 0 0 1 1.629-3.5l.114-1.56a7.067 7.067 0 0 1 .975-.693 9 9 0 0 0-.365-3.136c-1.584-5.115-2.056-6.492-1.31-10.892.914-5.411-1.156-8.844.716-10.1l.122-.038-9.018-44.457v-17.286l13.158 63.653a3.149 3.149 0 0 1 1.744-.6c4.076 0 5.992 10.489 5.952 14.344-.016 2.178-.776 3.038-2.512 3.258l12.406 67.252c.16-.6.746-2.466 1.834-3a1.383 1.383 0 0 1 .494-.145c.113-.009.23-.014.354-.014 2.451 0 7.029 1.872 9.449 2.945.769-.457 1.591-.913 2.466-1.324l.624-3.448.114-.617a1.72 1.72 0 0 0-.616-1.5 10.819 10.819 0 0 1-4.437-2.474c-.122-.122-.244-.236-.35-.365a6.026 6.026 0 0 1-1.157-2.078c-.708-2.177-.4-4.993.167-8.806 0 0 .076-.525.191-1.294a3.376 3.376 0 0 1-1.188-1.742c-.258-1.637.275-2.5 2-3.372.122-.715.236-1.332.327-1.728a45.853 45.853 0 0 1 1.9-6.6 2.73 2.73 0 0 1-.7-.524 6.109 6.109 0 0 1-1.294-2.6 1.3 1.3 0 0 0 .539.1 4.5 4.5 0 0 0 1.25-.227c-2.458-1.79-3.432-4.126-3.341-5.818 1.112 1.664 3.118 3.733 7.06 6.807l.036.03c3.113 2.426 7.434 5.473 13.469 9.443 3.266 2.34 6.2 4.34 8.816 6.1-.244.4-.4.6-.4.6a5.308 5.308 0 0 1-1.849.342c-.016.442-.016.845-.016 1.219a7.486 7.486 0 0 0 .473 3.288h-.084a3.655 3.655 0 0 1-2.253-.785c-2.877 5.533-5.145 8.159-7.916 9.217l-1.255 6.979c1.141.73 4.985 1.674 5.381 2.633a5.4 5.4 0 0 1 1.766 2.123q.263.069.525.16c3.167 1.21 10.754 6.028 11.858 9.719a7.084 7.084 0 0 1 .761 1.309c1.56 3.455 4.331 9.818 6.484 15.877m-65.5-87.39a8.746 8.746 0 0 1-.008 1.666c-1.423 16.027-7.21 30.161-9.01 37.241 1.439 1.8 4.156 8.829 8.548 12.619a36.907 36.907 0 0 0 10.7 4.81l-.556-1.712a2.4 2.4 0 0 1-.061-1.2l-9.6-53.407m.99-2.01l-.007.145c.053.1.106.206.152.313l-.145-.457m53.437 18.189a49.272 49.272 0 0 1-5-2.278c-6.2-4.152-10.994-7.616-13.034-9.583-.023-.516-.033-1.128-.03-1.829a11.185 11.185 0 0 1 1.909-.291c.255-.017.508-.026.763-.026 6.714 0 13.481 5.719 15.2 13.139.068.292.131.58.19.866" class="prefix__cls-19" transform="translate(-280.178 952.512)"/>
            <path id="prefix__path94" d="M613.932-1053.821h37.73a4.58 4.58 0 0 1 4.567 4.567v4.268a4.58 4.58 0 0 1-4.567 4.567h-37.73" transform="translate(-257.543 1076.946)" style="fill:#557b2b"/>
            <path id="prefix__path96" d="M673.432-1026.747l-2.933-7.289a1.04 1.04 0 0 1 .459-1.27l17.693-9.541a.878.878 0 0 0 .345-1.215l-6.942-12.055" transform="translate(-280.45 1078.958)" style="stroke-linejoin:round;stroke-width:6.816px;stroke-linecap:round;stroke:#e8e7e6;fill:none;stroke-miterlimit:10"/>
            <path id="prefix__path98" d="M934.7-104.073c1.355 0 1.125-2.872 3.822-3.31 5.733-.93 4.364 2.736 6.94 2.766 2.387.027 4.3.6 4.3 2.665a30.956 30.956 0 0 1-.31 6.637C948.98-93.279 945.8-93 941.158-93c-4 0-8.749-.788-8.9-2.567-.215-2.55-1.13-8.505 2.436-8.505" class="prefix__cls-25" transform="translate(-374.701 633.743)"/>
            <path id="prefix__path100" d="M947.356-619.927a6.239 6.239 0 0 1-3.283-.857 3.472 3.472 0 0 1-1.346-1.557l-.067-.175c-.706-2.082 2.733-3.343 3.784-3.675.186-.06.3-.091.3-.091-.072 1.055-.1 1.967-.079 2.752.025 1.924.284 3.071.694 3.6" class="prefix__cls-26" transform="translate(-380.623 876.703)"/>
            <path id="prefix__path102" d="M882.451-660.661a6.244 6.244 0 0 0 1.838 2.852 3.473 3.473 0 0 0 1.9.794c.064 0 .13.008.187.008 2.2.023 2.326-3.638 2.314-4.739 0-.2-.006-.309-.006-.309-.982.4-1.84.7-2.592.931-1.837.576-3.008.686-3.641.462" class="prefix__cls-26" transform="translate(-358.625 893.458)"/>
            <path id="prefix__path104" d="M785.807-720.186c-.018.3-.055.6-.1.881-.953 6-12.624 1.749-12.34 1.2a18.274 18.274 0 0 0 .349-3.59c.35-3.451 1.63-6.251.344-9.431-2.27-5.6-2.952-7.109-1.944-11.936 1.231-5.926-1.714-9.685.905-11.061.754-.4 1.895 1.46 3.083 4.049 2.106 4.6 4.369 11.526 4.894 12.274.79 1.111 5.214 11.447 4.8 17.615" class="prefix__cls-27" transform="translate(-317.476 936.605)"/>
            <path id="prefix__path106" d="M788.955-716.572a76.888 76.888 0 0 1-8.357-.736 57.634 57.634 0 0 0 2.112-9.257c.32-3.573-.15-3.88-1.659-7.8a57.1 57.1 0 0 1-2.662-11.013s.338-.422.869-1.08c2.106 4.6 4.369 11.526 4.894 12.274.79 1.111 5.214 11.447 4.8 17.615" class="prefix__cls-28" transform="translate(-320.375 932.991)"/>
            <path id="prefix__path108" d="M774.269-704.625c3.5-2.407 10.485-2.86 12.583.292l-.237 3.586c-.3 1.509-12.773 1.308-12.773 1.308l.427-5.186" transform="translate(-318.413 914.305)" style="fill:#ece5ea"/>
            <path id="prefix__path110" d="M677.408-996.267l116.406 277.808-116.406-277.808" class="prefix__cls-27" transform="translate(-269.196 1049.99)"/>
            <path id="prefix__path112" d="M673.6-997.312L790.005-719.5a2.111 2.111 0 0 0 2.764 1.131 2.112 2.112 0 0 0 1.131-2.764L677.495-998.945a2.112 2.112 0 0 0-2.764-1.131 2.111 2.111 0 0 0-1.132 2.764" class="prefix__cls-30" transform="translate(-267.136 1051.85)"/>
            <path id="prefix__path114" d="M848.429-586.077l66.931 158.988-66.931-158.988" class="prefix__cls-27" transform="translate(-336.625 857.874)"/>
            <path id="prefix__path116" d="M844.62-587.119l66.932 158.989a2.112 2.112 0 0 0 2.766 1.13 2.112 2.112 0 0 0 1.127-2.767l-66.932-158.991a2.112 2.112 0 0 0-2.766-1.127 2.112 2.112 0 0 0-1.128 2.766" class="prefix__cls-30" transform="translate(-334.481 859.735)"/>
            <path id="prefix__path118" d="M790.711-751.438c-3.725.8-6.025 4.056-6.084 6.4s1.6 2.348 2.052 6.346 2.414 6.713 5.28 6.562 4.067-1.052 4.073-3.621c.011-4.793-3.168-9.287-3.168-9.287 1.206-1.575.671-7.006-2.154-6.4" class="prefix__cls-27" transform="translate(-322.519 935.343)"/>
            <path id="prefix__path120" d="M881.892-637.346c-4.322 1.314-5.64 2.214-5.158 4.508.236 1.122 2.626 2.947 4.134 2.545 5.345-1.424 1.024-7.054 1.024-7.054" class="prefix__cls-28" transform="translate(-356.422 881.886)"/>
            <path id="prefix__path122" d="M875.735-82.87h-17.424l-1-3.218h18.42v3.218" class="prefix__cls-25" transform="translate(-347.725 623.699)"/>
            <path id="prefix__path124" d="M894.085-594.539s-.833 3.174 4.383 4.33a13.164 13.164 0 0 0 9.175-1.326l3.52-15.887-13.392-3.756-3.687 16.638" class="prefix__cls-27" transform="translate(-361.142 869.629)"/>
            <path id="prefix__path126" d="M896.364-602.132c12.01 2.661 11.541 11.656 12.058 9.322S913-613.025 913-613.025l-13.579-2.913-3.059 13.8" class="prefix__cls-28" transform="translate(-362.057 871.859)"/>
            <path id="prefix__path128" d="M884-581.567c3.656-1.653 8.3-4.264 14.34-3.717 8.185.744 9.616 5.1 9.245 7.475s-19.788-2.66-19.749-2.959-4.039-.835-4.039-.835" class="prefix__cls-31" transform="translate(-356.401 857.537)"/>
            <path id="prefix__path130" d="M882.056-650.981c-.691 3.123.435 10.922 1.646 13.449.517 1.078 1.049 3.384 3.182 4.584 1.941 1.092 3.074 1.809 2.825 2.932-.163.734.892.374 1.947.014a4.547 4.547 0 0 1 1.741-.4c10.392 2.3 17.2-7.933 18.888-15.56l-.986-10.714c1.85-8.349-1.55-15.4-9.629-17.123s-13.6 2.7-15.447 11.051l-4.168 11.763" class="prefix__cls-28" transform="translate(-354.643 899.13)"/>
            <path id="prefix__path132" d="M908.148-659.591c-.048.3-.924.428-.989.729l-.356 2.4-.743 4.96c-.217 1.171-.265 2.474-.422 3.789-.042.35-.091.7-.151 1.05a10.253 10.253 0 0 1-.58 2.094c-1.641 4.067-4.133 8-7.549 10.15a10.8 10.8 0 0 1-8.37 1.43c-4.049-.887-6.806-1.684-8.665-3.368a6.5 6.5 0 0 1-1.635-2.275c-1.019-2.39-.622-5.479.145-9.655 0 0 1.237-6.939 1.793-8.919a38.609 38.609 0 0 1 2.9-7.766c.73-1.273 1.545-2.142 2.383-2.034 3.592.457 4.51-2.365 5.569-5.187 1.148-3.062 2.462-6.122 7.532-5 7.8 1.726 11.333 6.687 9.142 17.6" class="prefix__cls-27" transform="translate(-353.252 900.66)"/>
            <path id="prefix__path134" d="M905.447-617.135c-2.778 12.537-7.963 13.514-15.922 11.776-4.05-.885-6.8-1.879-8.656-3.568a6.415 6.415 0 0 1-1.636-2.273c1.6 2.9 15.8 7.006 18.4-4.755.887-4.007 4.283-3.315 7.809-1.18" class="prefix__cls-28" transform="translate(-354.387 873.224)"/>
            <path id="prefix__path136" d="M908.772-640.208c.478-.591.561.282.551 1.155a10.947 10.947 0 0 0-.035 1.31c2-8.287 1.1-1.125 3.707-10.215 1.276-4.457 3.309-3.8 5.041-3.152 1.279.482 2.4.964 2.92-.615 6.061-18.229 1.531-23.706-14.707-27.174-9.04-1.93-13.327 2.66-14.848 7.578-1.771 5.728-4.076 14.555-.831 15.274 1.011.224 3.034.389 3.034.389l15.169 15.449" class="prefix__cls-26" transform="translate(-356.495 901.559)"/>
            <path id="prefix__path138" d="M910.412-645.706c.423-.535.522.245.536 1.024a9.679 9.679 0 0 0 0 1.166c.8-3.651 1.226-3.1 1.781-2.553.573.566 1.28 1.133 2.66-2.916 1.434-4.21 2.808-3.3 4.016-2.4.88.66 1.67 1.32 2.332.008 8.7-17.24-2.666-27.7-14.592-28.508-9.607-.649-12.7 3.463-15.214 5.674-1.109.975-1.683.9-1.82.834s.225-.154 1 1.129c3.264 5.424 2.334 12.092 2.334 12.092l16.967 14.447" class="prefix__cls-26" transform="translate(-356.881 901.84)"/>
            <path id="prefix__path140" d="M928-670.72a28.436 28.436 0 0 0-13.255.1c-7.509 1.752-9.254-.3-10.674 2.56-2.232 4.5 2.977 9.816 5.278 10.246 4.388.819 5.646-5.3 7.292-6S928-670.72 928-670.72" class="prefix__cls-26" transform="translate(-363.379 897.859)"/>
            <path id="prefix__path142" d="M928.074-635.4c-.139.682-.29 1.364-.459 2.04a18.415 18.415 0 0 1-1.123 3.264c-.09.211-.193.416-.3.615-.133.247-.277.489-.428.725-.175.271-.35.543-.519.8-5.328 8.092-9.16 10.518-15.237 10.729a3.369 3.369 0 0 1-1.273-.41 9.441 9.441 0 0 1-4.085-2.86c-3.313-4.085-2.384-10.638-1.183-16.022.127-.555.254-1.092.38-1.617.3-1.267.6-2.438.821-3.458l13.511 1.913.79.114s.174 1.092.35 2.776a19.968 19.968 0 0 0 2.112.537 55.82 55.82 0 0 0 6.644.851" class="prefix__cls-26" transform="translate(-362.758 883.875)"/>
            <path id="prefix__path144" d="M891.159-639.807c-.909 3.062.08 6.086 2.211 6.752s4.6-1.275 5.506-4.338.236-5.753-1.83-6.614-4.977 1.137-5.887 4.2" class="prefix__cls-27" transform="translate(-361.321 885.1)"/>
            <path id="prefix__path146" d="M886.737-578.946a40.306 40.306 0 0 0 6.514 2.884c6.148 2.054 19.808 4.22 18.288.883-.711-1.561-1.787-4.252-8.4-5.239s-10.87.711-15.088 1.214" transform="translate(-357.284 855.365)" style="fill:#344655"/>
            <path id="prefix__path148" d="M947.4-512.943c-7.567 4.743-18.085 12.546-18.194 12.624a7.8 7.8 0 0 1-4.671 1.551 7.836 7.836 0 0 1-6.3-3.168 7.843 7.843 0 0 1 1.618-10.977c.38-.284 8.11-6.017 15.381-10.844-1.406-3.85-4.791-11.116-10.838-21.44a7.843 7.843 0 0 1 2.806-10.729 7.819 7.819 0 0 1 8.008.055 7.687 7.687 0 0 1 2.728 2.751 210.161 210.161 0 0 1 10.234 19.557 51.916 51.916 0 0 1 2.685 7.163l.042.157c.1.38.2.766.284 1.158l.006.024c.984 4.52.694 9.305-3.789 12.117" class="prefix__cls-33" transform="translate(-366.327 844.256)"/>
            <path id="prefix__path150" d="M963.237-520.371c-1.762.6-4.827-.61-6.638-5.739a210.3 210.3 0 0 0-11.369-24.541 45.673 45.673 0 0 1 3.349-4.224 7.69 7.69 0 0 1 2.728 2.751 210.178 210.178 0 0 1 10.234 19.557 51.917 51.917 0 0 1 2.685 7.163l.042.157a9.086 9.086 0 0 1 .284 1.158l.006.024c.3 1.7.073 3.217-1.321 3.693" class="prefix__cls-34" transform="translate(-379.187 843.26)"/>
            <path id="prefix__path152" d="M934.7-117.069c1.355 0 1.125-2.872 3.822-3.31 5.733-.93 4.364 2.737 6.94 2.767 2.387.027 4.3.6 4.3 2.665 0 1.973.173 6.055-.31 8.16-.467 2.035-3.646 2.314-8.289 2.314-4 0-8.749-.788-8.9-2.567-.215-2.55-1.13-10.028 2.436-10.028" class="prefix__cls-35" transform="translate(-374.701 639.83)"/>
            <path id="prefix__path154" d="M850.125-108.34c-.024.663-.055 1.316-.1 1.955 0 0-5.244.6-14.911-1.376-11.284-2.317-13.818 1.376-19.654 1.376h-12.065a17.119 17.119 0 0 1-.646-3.1c-.265-2.408.036-5.346 3.1-5.346 11.5 0 12.124-2.511 18.87-5.316 5.95-2.475 7.009-7.974 7.009-12.741a116.653 116.653 0 0 0 12.543 9.536c5.2 3.235 6.022 9.426 5.859 15.014" class="prefix__cls-35" transform="translate(-323.766 645.62)"/>
            <path id="prefix__path156" d="M857.315-118.367c3.7 2.866 9.518 6.123 13.924 2.383 0 0-4.193-6.909-5.853-6.456s-8.071 4.073-8.071 4.073" transform="translate(-348.398 640.735)" style="fill:#c4bea8"/>
            <path id="prefix__path158" d="M931.222-249.091c-4.152.6-8.912.742-9.975-3.506-4-15.919-9.7-87.192-11.018-119.494a204.736 204.736 0 0 1 .326-27.191 9.292 9.292 0 0 1 1.478-4.176 9.329 9.329 0 0 1 8.769-4.188 9.345 9.345 0 0 1 7.507 5.292h.006a9.321 9.321 0 0 1 .851 4.954 152.938 152.938 0 0 0-.555 16.1c.284 31.312 6.2 109.458 10.307 125.794 1.261 5.014-3.542 5.811-7.694 6.414" class="prefix__cls-33" transform="translate(-364.902 774.327)"/>
            <path id="prefix__path160" d="M827.292-612.441c-.084.139-.169.272-.259.4a7.817 7.817 0 0 1-6.505 3.452c-.247 0-.495-.012-.748-.036 1.835 8.044 5.389 29.122-2.227 13.631-1.007-2.048-1.736-2.037-2.22-2.027-.512.011-.749.022-.749-2.4 0-12.913-7.1-13.9-28.181-29-6.034-3.97-10.355-7.018-13.469-9.443l-.036-.031c-6.5-5.069-7.736-7.4-8.382-9.7-.512-1.822-1.375-4.876.61-29.074.929-11.351 2.069-20.354 2.081-20.457.459-4.308 4.924-5.624 9.233-5.165s6.826 1.9 6.373 6.21c-1.859 17.548-3.506 37.256-3.229 43.369 2.04 1.967 6.831 5.43 13.034 9.583 9 6.028 20.994 13.5 31.9 19.932a7.849 7.849 0 0 1 2.769 10.747" class="prefix__cls-34" transform="translate(-307.437 912.339)"/>
            <path id="prefix__path162" d="M901.214-394.149c-.078.778-.15 1.443-.211 2.039a55.39 55.39 0 0 0-.345 6.27c-.006.851-.006 1.835.006 3.018.6 6.94-12.9 9.269-18.387 12.171-2.963 1.563-5.226 3.549-5.98 6.735-2.933 12.473-6.517 117.725-6.517 117.725l-19.51-1.412s4.828-120.537 4.773-144.506c0 0 2.915-1.182 7.338-2.667.815-.271 1.683-.561 2.589-.845a119.6 119.6 0 0 1 19.111-4.586c6.294-.869 12.256-.839 16.275 1.1h.006a9.319 9.319 0 0 1 .851 4.954" class="prefix__cls-34" transform="translate(-340.029 771.076)"/>
            <path id="prefix__path164" d="M885.428-571.422l-4.556 80.378-.368 6.48a5.407 5.407 0 0 1-.326 1.618c-.966 2.6-3.947 3.2-7.32 3.2 0 0-5.612-.12-12.564-.495h-.024c-11.266-.61-26.033-1.871-26.033-4.333v-75.816a23.931 23.931 0 0 0-4.549-12.871c-.194-.242-.549-.628-1.039-1.135-5.763-6.052-29.991-29.267-20.71-22.587a36.3 36.3 0 0 0 4.332 2.662 64.527 64.527 0 0 0 20.216 6.179l.1.012s.8-2.8 2.618-3.506a2.345 2.345 0 0 1 .694-.157c4.526-.308 16.022 4.006 16.022 4.006a110.745 110.745 0 0 0 14.169 2.559c2.438.247 5.184.018 7.634.742 5.431 1.617 11.931 9.088 11.707 13.064" class="prefix__cls-34" transform="translate(-319.547 863.542)"/>
            <path id="prefix__path166" d="M905.19-387.117c-.966 2.6-3.947 2.594-7.32 2.594 0 0-5.612-.121-12.564-.494h-.024c-11.266-.61-26.033-1.871-26.033-4.333v-4.224c0 2.462 14.766 3.723 26.033 4.333h.024c6.952.374 12.564.495 12.564.495 3.373 0 6.633-.342 7.6-2.937a22.471 22.471 0 0 1-.279 4.566" transform="translate(-343.995 767.713)" style="fill:#6b4743"/>
            <path id="prefix__path168" d="M873.654-392.394c-1.852-.181-3.644-.374-5.291-.6-5.268-.7-9.112-1.647-9.112-2.9v-3.922a41.525 41.525 0 0 0 9.015 5.087 40.29 40.29 0 0 0 5.389 2.335" transform="translate(-349.024 770.637)" style="fill:#f3ebea"/>
            <path id="prefix__path170" d="M862.382-460.35c-1.811 9.2 10.5 20.037 3.366 18.173-20-5.223-29.342-14.181-29.342-14.181s11.946-27 11.946-48.569c0-12.521 20.969 17.271 22.025 20.289s-8 24.288-8 24.288" class="prefix__cls-34" transform="translate(-337.841 821.298)"/>
            <path id="prefix__path172" d="M917.433-376.063a71.032 71.032 0 0 1-19.375-2.646c1.838.128 3.661.237 5.4.331h.024c6.952.374 12.564.495 12.564.495 3.2 0 6.039-.542 7.15-2.8-.094 1.208-.145 2.409-.157 4.246h-.006a26.63 26.63 0 0 1-5.6.378" class="prefix__cls-39" transform="translate(-361.308 761.677)"/>
            <path id="prefix__path174" d="M913.913-377.888s-5.612-.12-12.564-.495h-.024c-1.74-.094-3.563-.2-5.4-.331-.811-.24-1.62-.5-2.421-.781 2.647.206 5.321.374 7.822.509h.024c6.952.374 12.564.494 12.564.494 3.195 0 6.038 0 7.149-2.206v.006c-1.111 2.263-3.955 2.8-7.15 2.8" class="prefix__cls-39" transform="translate(-359.282 761.682)"/>
            <path id="prefix__path176" d="M905.9-381.434s-5.612-.121-12.564-.494h-.024c-2.5-.135-5.175-.3-7.822-.509a37.62 37.62 0 0 1-9.1-4.542c1.488.2 3.093.379 4.755.544q1.568.469 3.236.907a60.526 60.526 0 0 0 16.609 2.146h.636c1.3-.012 2.576-.031 3.8-.067 2.95-.089 5.589-.254 7.651-.471l-.023.281c-1.112 2.206-3.955 2.206-7.15 2.206" transform="translate(-351.676 764.624)" style="fill:#4d3b3d"/>
            <path id="prefix__path178" d="M878.97-388.139c-1.662-.166-3.267-.342-4.755-.544-.61-.428-1.2-.875-1.774-1.345q-.352-.289-.694-.59c2.205.862 4.613 1.7 7.223 2.48" transform="translate(-354.604 766.329)" style="fill:#ababaf"/>
            <path id="prefix__path180" d="M880.574-388.829q-1.667-.437-3.236-.907c-2.611-.78-5.018-1.618-7.223-2.479a24.225 24.225 0 0 1-1.853-1.812 39.6 39.6 0 0 0 4.254 2.027 42 42 0 0 0 8.057 3.171" class="prefix__cls-39" transform="translate(-352.588 767.925)"/>
            <path id="prefix__path182" d="M905.709-400.006c-2.161.266-5.123.465-8.491.567-1.219.036-2.492.055-3.8.067h-.374c-20.9.072-30.2-8.52-31.222-9.891a40.725 40.725 0 0 1-2.752-3.469c-.067-.1-.133-.193-.2-.3 0 0 .066-.03.2-.084 1.943-.8 17.488-7.283 17.982-7.984.351-.512 17.47 7.6 28.652 12.98a62.416 62.416 0 0 0 0 8.11" class="prefix__cls-34" transform="translate(-343.771 780.614)"/>
            <path id="prefix__path184" d="M923.858-386.62l1.557-7.271 2.238 7.2c-1.219.036-2.491.055-3.8.067" class="prefix__cls-42" transform="translate(-373.999 767.861)"/>
            <path id="prefix__path186" d="M863.747-574.9a8.061 8.061 0 0 0-7.606-7.467s.8-2.8 2.619-3.506c6.3 2.073 4.987 10.973 4.987 10.973" class="prefix__cls-33" transform="translate(-348.884 857.778)"/>
            <path id="prefix__path188" d="M837.822-541.364l-.208-.175.208.175m-.312-.261l-.141-.115c-.115-.1-.235-.193-.356-.289l-.123-.1c.212.169.418.335.62.5m-.842-.678l-.108-.083-.115-.091.223.174m-.547-.423l-.037-.028c-2.433-1.849-5.493-3.857-9.277-6.378 3.8 2.533 6.875 4.547 9.314 6.405" transform="translate(-337.808 840.569)" style="fill:#52606e"/>
            <path id="prefix__path190" d="M821.376-552.637a38.5 38.5 0 0 0-6.155-6.528l-.078-.065-.208-.175c-.035-.029-.069-.058-.1-.086-.2-.167-.408-.334-.62-.5l-.028-.023-.194-.152-.223-.174c-.106-.084-.211-.165-.312-.24l-.011-.008c-2.438-1.858-5.511-3.872-9.314-6.405-3.131-2.086-6.757-4.524-10.933-7.514-6.034-3.97-10.356-7.018-13.469-9.443l-.036-.03c-2.148-1.776-1.415-3.293.534-3.293a6.994 6.994 0 0 1 3.841 1.44c3.246 2.275 18.079 10.289 31.722 16.547.489.507.845.893 1.038 1.135a23.93 23.93 0 0 1 4.549 12.871v2.648" class="prefix__cls-42" transform="translate(-315.838 858.436)"/>
            <path id="prefix__path192" d="M856.349-533.707a33.239 33.239 0 0 0-2.022-3.084v-2.648a23.932 23.932 0 0 0-4.549-12.871c-.194-.242-.549-.628-1.039-1.135 2.233 1.02 4.466 1.925 6.541 2.9 4.23 1.974 5.721 5.461 4.49 8.865-.972 2.673-2.317 5.654-3.422 7.977" class="prefix__cls-42" transform="translate(-345.667 842.59)"/>
            <path id="prefix__path194" d="M850.289-88.237c-.018.8-.06 3.4-.108 4.17 0 0-5.006-1.931-14.874-1.931-11.767 0-13.856 1.931-19.691 1.931h-12.07a17.478 17.478 0 0 1-.546-2.414h12.618c5.835 0 8.716-1.979 20.861-1.979 7.669 0 11.239.222 13.813.222" class="prefix__cls-25" transform="translate(-323.909 624.81)"/>
            <path id="prefix__path196" d="M947.75-622.926a18.433 18.433 0 0 0 1.123-3.264c.186-.06.3-.091.3-.091-.057.833-.084 1.576-.084 2.238 0 .177 0 .348.005.514a6.4 6.4 0 0 1-1.34.6" class="prefix__cls-44" transform="translate(-383.038 876.703)"/>
            <path id="prefix__path198" d="M889.27-654.273c-.373-.535-.69-1.019-.951-1.441a4.39 4.39 0 0 1 1.772-1.946c-.3 1.119-.586 2.267-.821 3.387" class="prefix__cls-45" transform="translate(-361.416 891.4)"/>
            <path id="prefix__path200" d="M893.5-650.142a42.024 42.024 0 0 1-3.387-4.216c.235-1.12.518-2.268.821-3.387a1.242 1.242 0 0 1 .47-.1 1.052 1.052 0 0 1 .141.009 5.805 5.805 0 0 0 .739.049 4.518 4.518 0 0 0 .557-.033 22.494 22.494 0 0 1 .659 7.675" class="prefix__cls-44" transform="translate(-361.812 891.485)"/>
            <path id="prefix__path202" d="M914.842-656.465l-13.511-1.913c-.075.342-.158.7-.247 1.075a3.486 3.486 0 0 0-1.968-2.265 2.675 2.675 0 0 0-1.034-.2 3.974 3.974 0 0 0-2.027.623l-.157-.171a22.492 22.492 0 0 0-.658-7.675c2.542-.308 3.354-2.756 4.272-5.2.982-2.618 2.085-5.236 5.555-5.236a9.2 9.2 0 0 1 1.977.238 13.608 13.608 0 0 1 6.679 3.23c-1.01.147-1.959.337-2.858.547-7.509 1.752-9.254-.3-10.674 2.56-2.231 4.5 2.977 9.815 5.278 10.246a4.307 4.307 0 0 0 .788.075c3.759 0 4.961-5.417 6.5-6.073.555-.236 2.028-1.1 3.736-2.139a22.984 22.984 0 0 1-.311 9.158c-.048.3-.924.428-.99.729l-.356 2.4" class="prefix__cls-44" transform="translate(-360.869 900.66)"/>
            <path id="prefix__path204" d="M910.141-657.481a4.307 4.307 0 0 1-.788-.075c-2.3-.43-7.51-5.747-5.278-10.246 1.42-2.862 3.165-.808 10.674-2.56.9-.21 1.848-.4 2.858-.547a9.858 9.858 0 0 1 2.774 5.215c-1.708 1.041-3.181 1.9-3.736 2.139-1.543.656-2.745 6.073-6.5 6.073" class="prefix__cls-44" transform="translate(-364.604 897.605)"/>
            <path id="prefix__path206" d="M925.465-629.686a23.268 23.268 0 0 1-6.641-1.245c-.881-.278-1.666-.543-2.245-.766a38.924 38.924 0 0 1-10.181-5.836 6.671 6.671 0 0 0-.168-2.985c.089-.373.172-.733.247-1.075l13.511 1.913.79.114s.174 1.092.35 2.776a19.967 19.967 0 0 0 2.112.537 55.8 55.8 0 0 0 6.644.851c-.139.682-.29 1.364-.459 2.04a18.418 18.418 0 0 1-1.125 3.262 9.1 9.1 0 0 1-2.661.41h-.178" class="prefix__cls-44" transform="translate(-364.481 883.875)"/>
            <path id="prefix__path208" d="M901.97-638.758q-.377-.3-.742-.6a45.919 45.919 0 0 1-4.454-4.226 3.975 3.975 0 0 1 2.027-.623 2.673 2.673 0 0 1 1.034.2 3.486 3.486 0 0 1 1.968 2.265 6.672 6.672 0 0 1 .168 2.985" class="prefix__cls-45" transform="translate(-363.955 885.1)"/>
            <path id="prefix__path210" d="M883.016-667.1c-5.908-2.94-6.676-7.546-4.49-8.966 1.955-1.27 15.03 1.575 25.156 10.814 4.2 3.835 1.794-2.307 7.284 2.836 12.6 11.782-27.95-4.684-27.95-4.684" transform="translate(-352.153 900.156)" style="fill:#e0a712"/>
            <path id="prefix__path212" d="M923.3-656.271c-3.093.931-7.558.1-12.324-1.745a62.993 62.993 0 0 1-15.17-8.737c-6.322-4.94-10.625-10.455-9.075-13.962.072-.155.137-.31.222-.465v-.006a20.346 20.346 0 0 1 9.238-10.05 19.1 19.1 0 0 1 7.689-2c9.935-.514 20.32 6.042 22.956 14.641 4.349 14.166-3.535 22.325-3.535 22.325" transform="translate(-354.398 908.076)" style="fill:#f9ef46"/>
            <path id="prefix__path214" d="M914.382-658.359a10.458 10.458 0 0 1-3.4.368 62.991 62.991 0 0 1-15.17-8.737c-6.322-4.94-10.625-10.455-9.075-13.962.072-.155.137-.31.222-.465v-.006a20.346 20.346 0 0 1 9.238-10.05 19.1 19.1 0 0 1 7.689-2c6.543 2.208 12.129 7.138 13.952 13.073 4.245 13.823-3.451 21.781-3.451 21.781" class="prefix__cls-16" transform="translate(-355.908 908.052)"/>
            <path id="prefix__path216" d="M912.682-684.238a13.334 13.334 0 0 0-10.475 3.36c-2.9 2.713 1.456 7.052 4.348 4.347 1.7-1.586 3.911-1.741 6.127-1.559a3.083 3.083 0 0 0 3.074-3.074 3.13 3.13 0 0 0-3.074-3.074" transform="translate(-364.153 903.875)" style="fill:#fddec7"/>
            <path id="prefix__path218" d="M694.057-1061.489c0 3.745-1.652 6.941-3.974 8.167a4.584 4.584 0 0 1-2.115.54c-3.367 0-6.095-3.9-6.095-8.707a11.811 11.811 0 0 1 .118-1.7 11.44 11.44 0 0 1 .42-1.873 8.989 8.989 0 0 1 1.78-3.249 5.06 5.06 0 0 1 3.777-1.873 4.491 4.491 0 0 1 2.115.541 5.9 5.9 0 0 1 1.657 1.332 8.989 8.989 0 0 1 1.78 3.249 11.453 11.453 0 0 1 .42 1.873 11.8 11.8 0 0 1 .118 1.7" transform="translate(-285.323 1084.612)" style="fill:#c38260"/>
            <path id="prefix__path220" d="M666.353-1061.489c0 .312-.011.624-.038.921-.016.229-.038.456-.069.685-.038.289-.086.571-.145.844-.021.13-.053.266-.085.388-.043.175-.085.342-.138.51-.027.114-.064.221-.1.327-.047.145-.095.281-.143.411l-.037.1-.043.1c-.037.1-.075.19-.118.281a1.385 1.385 0 0 1-.1.214c-.043.1-.09.205-.138.3-.118.236-.24.457-.373.669a6.484 6.484 0 0 1-2.456 2.421 4.583 4.583 0 0 1-2.115.54l-.058-.007-.033.007h-37.723a4.543 4.543 0 0 0 2.109-.54 6.483 6.483 0 0 0 2.456-2.421 7.607 7.607 0 0 0 .373-.669c.048-.1.1-.2.139-.3a1.526 1.526 0 0 0 .1-.214c.059-.122.112-.251.159-.38l.038-.1.144-.411c.032-.106.07-.213.1-.327.053-.167.1-.335.139-.51.032-.13.059-.259.085-.388.059-.274.106-.556.144-.844.026-.221.053-.457.069-.685.027-.3.038-.609.038-.921a11.918 11.918 0 0 0-.117-1.7 10.235 10.235 0 0 0-1.689-4.476c-.165-.228-.33-.441-.511-.646a5.912 5.912 0 0 0-1.657-1.332 4.4 4.4 0 0 0-1.971-.533l-.144-.008h37.827a4.49 4.49 0 0 1 2.115.541 5.91 5.91 0 0 1 1.656 1.332 9.781 9.781 0 0 1 2.2 5.122 11.809 11.809 0 0 1 .118 1.7" class="prefix__cls-14" transform="translate(-260.374 1084.612)"/>
            <path id="prefix__path222" d="M665.564-1054.985c-.038.1-.075.19-.118.281a1.368 1.368 0 0 1-.1.213c-.043.1-.09.205-.138.3-.118.236-.24.457-.373.669a6.483 6.483 0 0 1-2.456 2.421 4.582 4.582 0 0 1-2.115.54l-.058-.007-.033.007h-37.727a4.541 4.541 0 0 0 2.109-.54 6.483 6.483 0 0 0 2.456-2.421 7.517 7.517 0 0 0 .373-.669c.048-.1.1-.2.139-.3a1.525 1.525 0 0 0 .1-.213c.059-.122.112-.251.159-.381l.038-.1c.048-.137.1-.275.144-.411.032-.106.069-.213.1-.327.053-.167.1-.335.139-.51.032-.13.059-.259.085-.389.059-.273.106-.556.144-.844.026-.221.053-.457.069-.685.027-.3.038-.609.038-.921a11.909 11.909 0 0 0-.117-1.7 10.232 10.232 0 0 0-1.689-4.475c5 3.783 23.847 10.465 32.925 10.465h5.914" transform="translate(-260.471 1082.392)" style="fill:#87b727"/>
            <path id="prefix__path224" d="M611.9-1061.489c0 4.807 2.728 8.7 6.093 8.7s6.092-3.9 6.092-8.7-2.728-8.7-6.092-8.7-6.093 3.9-6.093 8.7" transform="translate(-260.064 1084.613)" style="fill:#fbca75"/>
            <path id="prefix__path226" d="M619.061-1056.7c0 1.8 1.024 3.268 2.287 3.268s2.287-1.463 2.287-3.268-1.024-3.269-2.287-3.269-2.287 1.463-2.287 3.269" transform="translate(-263.425 1079.825)" style="fill:#402230"/>
            <path id="prefix__path228" d="M619.362-1054.011h1.667" transform="translate(-263.826 1077.034)" style="stroke:#acaeab;stroke-linejoin:round;stroke-width:6.816px;stroke-linecap:round;fill:none;stroke-miterlimit:10"/>
            <path id="prefix__path230" d="M627.03-1037.455h.082-.055z" transform="translate(-266.768 1069.282)" style="fill:#efb925"/>
            <path id="prefix__path232" d="M578.745-930.8a4.5 4.5 0 0 0 4.395-4.567v-2.433a4.5 4.5 0 0 0-4.395-4.567 4.5 4.5 0 0 0-4.395 4.567v2.435a4.5 4.5 0 0 0 4.395 4.567" class="prefix__cls-14" transform="translate(-246.829 1024.746)"/>
            <path id="prefix__path234" d="M327.173-548.559a4.5 4.5 0 0 0 4.4-4.566v-2.435a4.5 4.5 0 0 0-4.4-4.566 4.5 4.5 0 0 0-4.394 4.566v2.435a4.5 4.5 0 0 0 4.394 4.566" class="prefix__cls-16" transform="translate(-155.857 845.719)"/>
            <path id="prefix__path236" d="M681.8-155.226a4.5 4.5 0 0 0 4.395-4.566v-25.27a4.5 4.5 0 0 0-4.395-4.566 4.5 4.5 0 0 0-4.395 4.566v25.27a4.5 4.5 0 0 0 4.395 4.566" class="prefix__cls-14" transform="translate(-284.096 672.193)"/>
            <path id="prefix__path238" d="M179.407-128.872v-35.872c0-2.511-1.674-4.566-3.72-4.566s-3.719 2.055-3.719 4.566v35.872" class="prefix__cls-15" transform="translate(-113.134 662.677)"/>
            <path id="prefix__path240" d="M407.053-152.663a4.58 4.58 0 0 0 4.566-4.566v-3.958a4.58 4.58 0 0 0-4.566-4.566h-4.223a4.58 4.58 0 0 0-4.566 4.566v3.958a4.58 4.58 0 0 0 4.566 4.566h4.223" class="prefix__cls-13" transform="translate(-182.869 661.011)"/>
            <path id="prefix__path242" d="M239.076-527.644a4.581 4.581 0 0 0 4.567-4.566v-7.634a4.58 4.58 0 0 0-4.567-4.566h-4.223a4.58 4.58 0 0 0-4.567 4.566v7.634a4.58 4.58 0 0 0 4.567 4.566h4.223" class="prefix__cls-16" transform="translate(-140.448 838.359)"/>
            <path id="prefix__path244" d="M1013.874-169.628a3.814 3.814 0 0 0-3.8 3.8v37.792a3.814 3.814 0 0 0 3.8 3.8h48.089a3.813 3.813 0 0 0 3.8-3.8v-37.792a3.814 3.814 0 0 0-3.8-3.8h-48.089" transform="translate(-388.691 662.826)" style="fill:#f8f1cd"/>
            <path id="prefix__path246" d="M1010.075-169.273v3.42a1.905 1.905 0 0 0 1.9 1.9l51.892-.028a1.909 1.909 0 0 0 1.9-1.9v-3.419l-55.695.03" transform="translate(-388.692 662.674)" style="fill:#c1b5b9"/>
            <path id="prefix__path248" d="M1011.976-174.95a1.908 1.908 0 0 0-1.9 1.9v1.49a1.907 1.907 0 0 0 1.9 1.9h51.892a1.907 1.907 0 0 0 1.9-1.9v-1.52a1.906 1.906 0 0 0-1.9-1.9l-51.892.028" transform="translate(-388.692 665.332)" style="fill:#ebf8ef"/>
            <path id="prefix__path250" d="M1010.075-174.95v3.391a1.907 1.907 0 0 0 1.9 1.9h11.169a1.907 1.907 0 0 0 1.9-1.9v-3.421l-14.971.03" transform="translate(-388.692 665.332)" style="fill:#ebdfe4"/>
            <path id="prefix__path252" d="M1010.075-162.748v-.065.047a.128.128 0 0 0 0 .018" class="prefix__cls-59" transform="translate(-388.692 659.634)"/>
            <path id="prefix__path254" d="M1010.075-128.9v-33.8a.128.128 0 0 1 0-.018 1.886 1.886 0 0 0 .393 1.108 3.773 3.773 0 0 0-.393 1.681v31.029m16.863-3.985h-1.92v-27.048a3.8 3.8 0 0 0-.118-.942l32.935-.018v16.717a1.907 1.907 0 0 1-1.9 1.9h-1.835a1.906 1.906 0 0 0-1.9 1.9v3.24a1.907 1.907 0 0 1-1.9 1.9h-4.381a1.907 1.907 0 0 1-1.9-1.9v-11.79a1.907 1.907 0 0 0-1.9-1.9h-3.965a1.906 1.906 0 0 0-1.9 1.9v3.743a1.907 1.907 0 0 1-1.9 1.9h-3.6a1.906 1.906 0 0 0-1.9 1.9v6.593a1.907 1.907 0 0 1-1.9 1.9" transform="translate(-388.692 659.593)" style="fill:#b6ce18"/>
            <path id="prefix__path256" d="M1024.9-163.6a3.819 3.819 0 0 0-3.684-2.861h-7.339a3.814 3.814 0 0 0-3.409 2.122 1.886 1.886 0 0 1-.393-1.108V-168.541a1.907 1.907 0 0 0 1.9 1.9h45.858v3.022l-32.935.018" transform="translate(-388.692 662.319)" style="fill:#8d9f25"/>
            <path id="prefix__path258" d="M1010.075-174.962V-175h47.76v.017h-7.021l-25.768.014v-.022l-14.971.03" class="prefix__cls-59" transform="translate(-388.692 665.344)"/>
            <path id="prefix__path260" d="M1069.349-169.651h-34.689a1.907 1.907 0 0 0 1.9-1.9v-3.4l25.768-.014h-6.394a1.215 1.215 0 0 0-1.21 1.211v.785a1.214 1.214 0 0 0 1.21 1.21h13.414v2.1" transform="translate(-400.207 665.326)" style="fill:#a7d81c"/>
            <path id="prefix__path262" d="M1023.145-169.657h-11.169a1.907 1.907 0 0 1-1.9-1.9v-3.391l14.971-.03v3.421a1.907 1.907 0 0 1-1.9 1.9" transform="translate(-388.692 665.332)" style="fill:#abc11d"/>
            <path id="prefix__path264" d="M1099.909-174.975h3.791-3.791" class="prefix__cls-31" transform="translate(-430.767 665.332)"/>
            <path id="prefix__path266" d="M1103.639-171.759h-3.73v-3.215h3.791a1.213 1.213 0 0 1 1.15 1.208v.8a1.214 1.214 0 0 1-1.211 1.21" transform="translate(-430.767 665.331)" style="fill:#f6fcf9"/>
            <path id="prefix__path268" d="M1086.7-174.969h7.021-7.021" transform="translate(-424.582 665.329)" style="fill:#d7e60f"/>
            <path id="prefix__path270" d="M1087.026-171.757h-13.414a1.213 1.213 0 0 1-1.21-1.21v-.785a1.215 1.215 0 0 1 1.21-1.211h13.415v3.215" transform="translate(-417.884 665.329)" style="fill:#cde310"/>
            <path id="prefix__path272" d="M1022.135-85.285h-7.335a3.8 3.8 0 0 1-2.759-1.192 3.793 3.793 0 0 0 2.758 1.19h7.46-.12" transform="translate(-389.612 623.882)" style="fill:#957faf"/>
            <path id="prefix__path274" d="M1021.336-94.713h-7.46a3.792 3.792 0 0 1-2.757-1.19 3.788 3.788 0 0 1-1.044-2.61v-4.105a1.906 1.906 0 0 0 1.9 1.9h1.256a1.906 1.906 0 0 0 1.9-1.9v-2.082a1.907 1.907 0 0 1 1.9-1.9h7.984v8.09a3.814 3.814 0 0 1-3.682 3.8" transform="translate(-388.692 633.308)" style="fill:#e2ceb4"/>
            <path id="prefix__path276" d="M1013.232-126.026h-1.256a1.906 1.906 0 0 1-1.9-1.9v-31.034a3.773 3.773 0 0 1 .393-1.681 1.9 1.9 0 0 0 1.508.746l12.924-.007a3.789 3.789 0 0 1 .118.942v27.048h-7.984a1.907 1.907 0 0 0-1.9 1.9v2.084a1.906 1.906 0 0 1-1.9 1.9" transform="translate(-388.692 658.617)" style="fill:#a6b41f"/>
            <path id="prefix__path278" d="M1012.323-161.765a1.9 1.9 0 0 1-1.508-.746 3.814 3.814 0 0 1 3.409-2.122h7.339a3.819 3.819 0 0 1 3.684 2.861l-12.924.007" transform="translate(-389.039 660.487)" style="fill:#808925"/>
            <path id="prefix__path280" d="M478.061-121.514h32.889v-42.157h-32.889z" class="prefix__cls-5" transform="translate(-210.09 660.036)"/>
            <path id="prefix__path282" d="M478.061-122.448h32.889V-148.9h-32.889z" class="prefix__cls-14" transform="translate(-210.09 653.117)"/>
            <path id="prefix__path284" d="M490.358-120.122h-12.3v-7.853h12.3v7.853m0-34.3h-12.3v-6.278 1.68h12.3v4.593" class="prefix__cls-71" transform="translate(-211.74 658.644)"/>
            <path id="prefix__path286" d="M478.061-122.448h12.3V-148.9h-12.3z" transform="translate(-211.74 653.117)" style="fill:#9fab21"/>
            <path id="prefix__path288" d="M523.929-118.642h-7.081v-7.853h7.081v7.853m0-34.3h-7.081v-4.593h7.081v4.593" transform="translate(-226.178 657.164)" style="fill:#effafd"/>
            <path id="prefix__path290" d="M516.848-122.448h7.081V-148.9h-7.081z" transform="translate(-226.178 653.117)" style="fill:#cfe411"/>
            <path id="prefix__path292" d="M510.95-84.375h-32.889" class="prefix__cls-75" transform="translate(-210.09 622.897)"/>
            <path id="prefix__path294" d="M475.333-164.71a1.453 1.453 0 0 0 1.452 1.452h32.887a1.452 1.452 0 0 0 1.452-1.452 1.453 1.453 0 0 0-1.452-1.452h-32.886a1.453 1.453 0 0 0-1.452 1.452" class="prefix__cls-76" transform="translate(-208.875 661.203)"/>
            <path id="prefix__path296" d="M502.823-166.162a1.493 1.493 0 0 0-1.522 1.452 1.493 1.493 0 0 0 1.522 1.452h1.606a1.493 1.493 0 0 0 1.523-1.452 1.493 1.493 0 0 0-1.523-1.452h-1.606" class="prefix__cls-14" transform="translate(-220.745 661.203)"/>
            <path id="prefix__path298" d="M518.241-165.4a.763.763 0 0 1 .761-.761h8.744a.763.763 0 0 1 .761.761v1.362a.763.763 0 0 1-.761.761H519a.763.763 0 0 1-.761-.761v-1.362" class="prefix__cls-14" transform="translate(-226.415 661.203)"/>
            <path id="prefix__path300" d="M521.783-159.018H516.6v-1.68h5.188v1.68m-12.268 0h-8.324v-1.68h8.324v1.68" class="prefix__cls-77" transform="translate(-219.403 658.644)"/>
            <path id="prefix__path302" d="M490.358-159.018h-12.3v-1.68h12.3v1.68" class="prefix__cls-78" transform="translate(-211.74 658.644)"/>
            <path id="prefix__path304" d="M516.848-159.018h7.081v-1.68h-7.081z" transform="translate(-226.178 658.644)" style="fill:#e5dccc"/>
            <path id="prefix__path306" d="M510.951-160.717h-17.407a1.579 1.579 0 0 0 .261-.021h17.145v.021m-19.011 0h-13.878v-.021h13.617a1.573 1.573 0 0 0 .26.021" class="prefix__cls-80" transform="translate(-210.09 658.662)"/>
            <path id="prefix__path308" d="M505.54-160.717h-1.606a1.57 1.57 0 0 1-.26-.021h2.126a1.58 1.58 0 0 1-.261.021" transform="translate(-221.806 658.662)" style="fill:#babf19"/>
            <path id="prefix__path310" d="M555.615-122.074H589v-42.793h-33.385z" class="prefix__cls-5" transform="translate(-237.728 660.596)"/>
            <path id="prefix__path312" d="M555.615-123.022H589v-26.849h-33.385z" class="prefix__cls-13" transform="translate(-237.728 653.572)"/>
            <path id="prefix__path314" d="M568.1-120.66h-12.485v-7.972H568.1v7.972m0-34.82h-12.485v-6.368 1.7H568.1v4.664" class="prefix__cls-71" transform="translate(-239.717 659.182)"/>
            <path id="prefix__path316" d="M555.615-123.022H568.1v-26.849h-12.485z" transform="translate(-239.717 653.572)" style="fill:#d2ad15"/>
            <path id="prefix__path318" d="M602.173-119.159h-7.188v-7.972h7.188v7.972m-1.956-34.82h-5.231v-4.664h5.231v4.664" transform="translate(-254.447 657.681)" style="fill:#e9f8fc"/>
            <path id="prefix__path320" d="M602.173-123.022h-7.188v-26.848h5.231v.966c0 .837.481 1.522 1.069 1.522a1.041 1.041 0 0 0 .887-.676v25.037" transform="translate(-254.447 653.572)" style="fill:#f9e620"/>
            <path id="prefix__path322" d="M589-84.375h-33.385" class="prefix__cls-75" transform="translate(-237.728 622.897)"/>
            <path id="prefix__path324" d="M552.845-165.92a1.475 1.475 0 0 0 1.474 1.474H587.7a1.475 1.475 0 0 0 1.474-1.474 1.475 1.475 0 0 0-1.474-1.474h-33.38a1.475 1.475 0 0 0-1.474 1.474" class="prefix__cls-76" transform="translate(-236.449 661.78)"/>
            <path id="prefix__path326" d="M580.727-167.394a1.5 1.5 0 0 0-1.522 1.474 1.5 1.5 0 0 0 1.522 1.474h1.673a1.5 1.5 0 0 0 1.522-1.474 1.5 1.5 0 0 0-1.522-1.474h-1.676" class="prefix__cls-85" transform="translate(-248.968 661.78)"/>
            <path id="prefix__path328" d="M596.4-166.634a.763.763 0 0 1 .761-.761h8.9a.763.763 0 0 1 .761.761v.133a.763.763 0 0 1-.761.761h-2.3a.763.763 0 0 0-.761.761v.361a.763.763 0 0 1-.761.761h-2.975a.763.763 0 0 1-.761-.761v-.361a.763.763 0 0 0-.761-.761h-.579a.763.763 0 0 1-.761-.761v-.133" class="prefix__cls-85" transform="translate(-254.642 661.78)"/>
            <path id="prefix__path330" d="M604.825-161.934v7.38c0 .837.481 1.522 1.069 1.522s1.069-.685 1.069-1.522v-7.38h-2.138" class="prefix__cls-85" transform="translate(-258.504 659.223)"/>
            <path id="prefix__path332" d="M613.93-160.143h-5.084v-1.7h5.085v1.7" class="prefix__cls-77" transform="translate(-259.673 659.182)"/>
            <path id="prefix__path334" d="M613.931-161.867h-5.085v-.022h5.084v.022" class="prefix__cls-80" transform="translate(-259.673 659.201)"/>
            <path id="prefix__path336" d="M587.541-160.143h-8.45v-1.7h8.45v1.7" class="prefix__cls-77" transform="translate(-248.576 659.182)"/>
            <path id="prefix__path338" d="M568.1-160.143h-12.485v-1.7H568.1v1.7" class="prefix__cls-78" transform="translate(-239.717 659.182)"/>
            <path id="prefix__path340" d="M600.217-160.143h-5.231v-1.7h2.873a.764.764 0 0 0 .742.59h1.617v1.114" transform="translate(-254.637 659.182)" style="fill:#e0ddcd"/>
            <path id="prefix__path342" d="M579.419-161.867h-8.065a1.567 1.567 0 0 0 .26-.022h7.8v.022m-9.74 0h-14.059v-.022h13.8a1.573 1.573 0 0 0 .26.022" class="prefix__cls-80" transform="translate(-238.658 659.201)"/>
            <path id="prefix__path344" d="M583.514-161.867h-1.676a1.569 1.569 0 0 1-.26-.022h2.2a1.572 1.572 0 0 1-.26.022" class="prefix__cls-87" transform="translate(-250.064 659.201)"/>
            <path id="prefix__path346" d="M602.743-161.277h-1.617a.764.764 0 0 1-.742-.59v-.022h2.363v.612" class="prefix__cls-87" transform="translate(-256.87 659.201)"/>
            <path id="prefix__path348" d="M606.963-160.163h-2.138v-1.726h2.138v1.726" class="prefix__cls-87" transform="translate(-258.504 659.201)"/>
            <path id="prefix__path350" d="M376.592-86.225h-35.44a4.756 4.756 0 0 0 4.031-2.039 8.143 8.143 0 0 0 1.094-.865h25.018l.03.023a5.68 5.68 0 0 0 3.516 1.295h.057a5.544 5.544 0 0 0 2.718-.782l.052-.03.015-.009a8.518 8.518 0 0 0 2.352-2.207c.266-.366.456-.649.634-.941a3.324 3.324 0 0 1 .486 1.718c0 2.112-2.055 3.839-4.566 3.839m-31.781-6.129a4.9 4.9 0 0 0-3.66-1.55h4.495a13.869 13.869 0 0 1-.835 1.55" class="prefix__cls-3" transform="translate(-159.163 627.36)"/>
            <path id="prefix__path352" d="M337.415-90.064c0-2.112-2.055-3.84-4.566-3.84H324c-2.511 0-4.566 1.728-4.566 3.84s2.055 3.839 4.566 3.839h8.852c2.511 0 4.566-1.728 4.566-3.839" class="prefix__cls-12" transform="translate(-154.204 627.36)"/>
            <path id="prefix__path354" d="M399.325-112.315a4.049 4.049 0 0 1-.906-.077 4.461 4.461 0 0 1-1.727-.784c-2.291-1.621-4.072-5.419-4.712-10.161a28.487 28.487 0 0 1-.259-3.668c-.061-6.591 2.025-12.262 4.97-14.339a4.441 4.441 0 0 1 1.72-.784 3.808 3.808 0 0 1 .655-.084c4.125-.145 7.527 6.431 7.6 14.69a27.659 27.659 0 0 1-.267 4.186c-.853 6.248-3.684 10.9-7.078 11.021m9.742-16.227a28.862 28.862 0 0 0-.593-4.833c-.944-4.391-2.58-6.8-3.783-8.053a5.947 5.947 0 0 0-4.376-2.063 5.321 5.321 0 0 0-2.428.594 6.273 6.273 0 0 0-1.119.723 6.122 6.122 0 0 0-.593.51c-.13.122-.252.244-.366.373a14.587 14.587 0 0 0-3.166 6.051 21.945 21.945 0 0 0-.532 2.17 22.431 22.431 0 0 0-.365 2.328 23.484 23.484 0 0 0-.183 2.474c-.016.38-.008.89-.016 1.278a32.019 32.019 0 0 0 .229 3.486c0 .03.007.091.015.167.061.419.206 1.4.38 2.185a20.446 20.446 0 0 0 1.833 5.275 12.426 12.426 0 0 0 2.184 3.013 6.322 6.322 0 0 0 .586.51l.031.023a5.68 5.68 0 0 0 3.516 1.294 5.592 5.592 0 0 0 2.847-.822 8.517 8.517 0 0 0 2.352-2.207 14.166 14.166 0 0 0 1.355-2.268 20.46 20.46 0 0 0 .791-1.895 24.746 24.746 0 0 0 1.081-4.376 29.921 29.921 0 0 0 .327-5.937" class="prefix__cls-4" transform="translate(-180.186 650.585)"/>
            <path id="prefix__path356" d="M406.361-111.553l-.084.036-.087.035-.089.034-.092.033-.094.031-.1.03-.1.027-.1.025-.1.022-.1.02-.1.016-.1.014-.1.011-.094.009-.091.006h-.088.088l.091-.006.094-.009.1-.011.1-.014.1-.016.1-.02.1-.022.1-.025.1-.027.1-.03.094-.031.092-.033.089-.034.087-.035.084-.036m-1.5.355h-1.45.133c4.117-.144 7.4-6.936 7.325-15.17-.071-8.146-3.395-14.653-7.452-14.652h1.317a3.884 3.884 0 0 1 1.314.231l.059.021a5.061 5.061 0 0 1 1.367.788 7.763 7.763 0 0 1 1.319 1.363 11.829 11.829 0 0 1 1.092 1.732 19.335 19.335 0 0 1 1.666 4.734 26.44 26.44 0 0 1 .459 2.783 29.329 29.329 0 0 1 .177 3c.045 5.146-1.219 9.73-3.179 12.479a8.4 8.4 0 0 1-1.254 1.418 4.6 4.6 0 0 1-2.891 1.273" class="prefix__cls-5" transform="translate(-185.017 649.427)"/>
            <path id="prefix__path358" d="M407.695-126.362a27.576 27.576 0 0 1-.267 4.186c-.815 5.967-3.433 10.466-6.629 10.945a4.021 4.021 0 0 1-.434.038h-3.607a4.073 4.073 0 0 0 1.8-.51 3.227 3.227 0 0 0 .51-.312c2.314-1.606 4.1-5.419 4.749-10.161a28.7 28.7 0 0 0 .259-4.186c-.054-6.432-2.139-11.836-5.008-13.822a4.222 4.222 0 0 0-.518-.32 4.011 4.011 0 0 0-1.926-.51h3.615a3.315 3.315 0 0 1 .548.045c3.806.548 6.835 6.82 6.9 14.606" class="prefix__cls-5" transform="translate(-182.422 649.424)"/>
            <path id="prefix__path360" d="M385.782-126.362a28.716 28.716 0 0 1-.259 4.186c-.646 4.742-2.435 8.555-4.749 10.161a3.229 3.229 0 0 1-.51.312 4.073 4.073 0 0 1-1.8.51h-20.782c3.387-.122 6.219-4.749 7.063-10.983a27.572 27.572 0 0 0 .267-4.186c-.076-8.152-3.395-14.651-7.451-14.651h20.77a4.011 4.011 0 0 1 1.926.51 4.222 4.222 0 0 1 .517.32c2.869 1.986 4.954 7.39 5.008 13.822" class="prefix__cls-12" transform="translate(-167.343 649.424)"/>
            <path id="prefix__path362" d="M361.028-126.362a27.576 27.576 0 0 1-.267 4.186c-.844 6.233-3.676 10.861-7.063 10.983h-4.521c3.387-.122 6.211-4.742 7.063-10.967a28.738 28.738 0 0 0 .267-4.2c-.076-8.152-3.395-14.651-7.452-14.651h4.522c4.056 0 7.375 6.5 7.451 14.651" class="prefix__cls-5" transform="translate(-165.19 649.424)"/>
            <path id="prefix__path364" d="M336.179-112.876c-3.128.106-5.838-3.646-6.994-9.065a24.422 24.422 0 0 1-.4-2.473 27.346 27.346 0 0 1-.2-3.113c-.068-8.235 3.212-15.024 7.33-15.169s7.512 6.416 7.58 14.651c.008.814-.015 1.613-.076 2.4-.016.244-.038.487-.061.731-.662 6.758-3.6 11.919-7.185 12.041m10.244-21.143a20.933 20.933 0 0 0-1.758-5.176 12.877 12.877 0 0 0-2.185-3.174c-.1-.1-.22-.213-.342-.327a6.526 6.526 0 0 0-.563-.488 6.939 6.939 0 0 0-1.15-.746 6.471 6.471 0 0 0-1.339-.5 5.993 5.993 0 0 0-1.386-.174 5.946 5.946 0 0 0-2.687.654 8.274 8.274 0 0 0-2.253 1.743 15.443 15.443 0 0 0-3.3 6.287 21.144 21.144 0 0 0-.548 2.215c-.167.829-.167.829-.373 2.382-.084.639-.1.853-.183 2.511-.023.389-.015.914-.015 1.3.023.959.045 1.949.183 3.174l.045.381c.122.936.244 1.644.411 2.4.076.35.159.708.251 1.1.228.921.693 2.207.723 2.29a17.6 17.6 0 0 0 1.324 2.786 12.244 12.244 0 0 0 .7 1.058c.266.343.639.784.929 1.1a8.12 8.12 0 0 0 1.385 1.164 6.1 6.1 0 0 0 3.4 1.073 5.849 5.849 0 0 0 2.991-.814l.038-.03a6.769 6.769 0 0 0 .7-.457l.053-.045a8.365 8.365 0 0 0 .67-.556 10.39 10.39 0 0 0 1.21-1.362 17.313 17.313 0 0 0 2.6-5.464 25.1 25.1 0 0 0 .746-3.342c.046-.274.084-.548.114-.814a30.686 30.686 0 0 0-.388-10.161" class="prefix__cls-4" transform="translate(-157.373 651.107)"/>
            <path id="prefix__path366" d="M339.375-87.226h-.075a6.1 6.1 0 0 1-3.4-1.073 8.12 8.12 0 0 1-1.385-1.164c-.289-.32-.662-.761-.929-1.1a12.25 12.25 0 0 1-.7-1.058 16.15 16.15 0 0 1-1.118-2.278 16.146 16.146 0 0 0 1.118 2.278 12.25 12.25 0 0 0 .7 1.058c.267.343.639.784.929 1.1A8.12 8.12 0 0 0 335.9-88.3a6.1 6.1 0 0 0 3.4 1.073h.058a5.66 5.66 0 0 0 1.995-.371 5.625 5.625 0 0 1-1.976.372m1.981-.374h.007-.007m.251-.1h.007-.007" class="prefix__cls-88" transform="translate(-159.053 627.36)"/>
            <path id="prefix__path368" d="M415.722-98.823l-.03-.015a21.292 21.292 0 0 0 1.987-6.743h.033a21.4 21.4 0 0 1-1.99 6.758" class="prefix__cls-7" transform="translate(-189.891 632.829)"/>
            <path id="prefix__path370" d="M381.91-87.34a5.68 5.68 0 0 1-3.516-1.295l-.03-.023h-25.018a8.144 8.144 0 0 1-1.094.865.043.043 0 0 1 .006-.01c.121-.079.244-.163.366-.254l.053-.045a8.37 8.37 0 0 0 .67-.556h25.018l.03.023a5.68 5.68 0 0 0 3.516 1.295m2.776-.782l.052-.03-.052.03m.056-.032l.015-.009a8.518 8.518 0 0 0 2.352-2.207c.266-.366.456-.649.634-.941-.177.291-.368.574-.634.941a8.518 8.518 0 0 1-2.352 2.207l-.015.009m-3.933-.464a4.12 4.12 0 0 1-.57-.039h.663a4.6 4.6 0 0 0 2.891-1.273 8.393 8.393 0 0 0 1.254-1.418 12.432 12.432 0 0 0 .932-1.547l.03.015c-1.316 2.577-3.106 4.191-5.088 4.263h-.112" class="prefix__cls-6" transform="translate(-165.023 626.888)"/>
            <path id="prefix__path372" d="M350.3-82.746a6.471 6.471 0 0 0 .67-.335l.038-.03c.11-.062.222-.13.335-.2a.047.047 0 0 0-.006.01 6.855 6.855 0 0 1-1.037.559" class="prefix__cls-88" transform="translate(-166.214 622.4)"/>
            <path id="prefix__path374" d="M404.962-93.281h-.049a5.68 5.68 0 0 1-3.516-1.295l-.03-.023h1.876a4.12 4.12 0 0 0 .57.039h.112c1.982-.072 3.773-1.687 5.088-4.263a21.4 21.4 0 0 0 1.99-6.758 6.047 6.047 0 0 0 2.139.748 1.021 1.021 0 0 0 .2-.018 24.748 24.748 0 0 1-1.081 4.376 20.479 20.479 0 0 1-.791 1.895c-.3.578-.5.959-.722 1.328-.177.291-.368.574-.634.941a8.516 8.516 0 0 1-2.354 2.211l-.015.009-.052.03a5.545 5.545 0 0 1-2.718.782h-.009" class="prefix__cls-8" transform="translate(-184.076 632.829)"/>
            <path id="prefix__path376" d="M331.331-97.641a20.317 20.317 0 0 1-1.383-4.242 20.317 20.317 0 0 0 1.383 4.242" class="prefix__cls-7" transform="translate(-158.81 631.097)"/>
            <path id="prefix__path378" d="M338.012-89.127c-2.153 0-4.1-1.839-5.462-4.777 1.363 2.938 3.309 4.771 5.462 4.777m.14 0a4.6 4.6 0 0 0 2.873-1.255 4.584 4.584 0 0 1-2.873 1.255" class="prefix__cls-88" transform="translate(-159.406 627.36)"/>
            <path id="prefix__path380" d="M413.583-99.238a21.845 21.845 0 0 0 1.788-6.342h.005a21.8 21.8 0 0 1-1.789 6.343" class="prefix__cls-7" transform="translate(-189.138 632.829)"/>
            <path id="prefix__path382" d="M408.559-90.043a10.032 10.032 0 0 0 2.669-3.609 10.041 10.041 0 0 1-2.673 3.608" class="prefix__cls-6" transform="translate(-187.262 627.242)"/>
            <path id="prefix__path384" d="M356.2-106.539c.124-.776.217-1.581.276-2.406-.016.244-.038.487-.061.731q-.084.856-.216 1.675" class="prefix__cls-7" transform="translate(-168.394 634.405)"/>
            <path id="prefix__path386" d="M404.732-94.6h-1.188a4.022 4.022 0 0 0 .434-.038 4.61 4.61 0 0 0 2.166-.99 10.04 10.04 0 0 0 2.673-3.608 21.8 21.8 0 0 0 1.789-6.343h1.317a21.292 21.292 0 0 1-1.987 6.743 12.426 12.426 0 0 1-.932 1.547 8.393 8.393 0 0 1-1.254 1.418 4.6 4.6 0 0 1-2.891 1.273h-.133" class="prefix__cls-9" transform="translate(-185.034 632.829)"/>
            <path id="prefix__path388" d="M400.48-94.6h-3.607a4.073 4.073 0 0 0 1.8-.51 3.223 3.223 0 0 0 .51-.312c2.314-1.606 4.1-5.419 4.749-10.161h3.608a21.844 21.844 0 0 1-1.788 6.342 10.032 10.032 0 0 1-2.669 3.609 4.611 4.611 0 0 1-2.166.99 4.023 4.023 0 0 1-.434.038" class="prefix__cls-9" transform="translate(-182.534 632.829)"/>
            <path id="prefix__path390" d="M378.567-94.6h-20.779c3.387-.122 6.219-4.749 7.063-10.983h20.778c-.646 4.742-2.435 8.555-4.749 10.161a3.227 3.227 0 0 1-.51.312 4.073 4.073 0 0 1-1.8.51" class="prefix__cls-88" transform="translate(-167.447 632.829)"/>
            <path id="prefix__path392" d="M356.159-94.6h-1.849a10.4 10.4 0 0 0 1.21-1.362 17.314 17.314 0 0 0 2.6-5.464 25.087 25.087 0 0 0 .746-3.342c.046-.274.084-.548.114-.814h4.247c-.844 6.233-3.676 10.861-7.063 10.983" class="prefix__cls-9" transform="translate(-167.253 632.829)"/>
            <path id="prefix__path394" d="M338.316-94.271h-.058a6.1 6.1 0 0 1-3.4-1.073 8.119 8.119 0 0 1-1.385-1.164c-.289-.32-.662-.761-.929-1.1a12.257 12.257 0 0 1-.7-1.058 16.161 16.161 0 0 1-1.118-2.278c-.062-.152-.131-.32-.206-.508-.03-.084-.495-1.37-.723-2.29-.091-.4-.175-.754-.251-1.1l.206-.388c0 .016.006.032.01.048a20.315 20.315 0 0 0 1.383 4.242c1.363 2.938 3.308 4.772 5.462 4.777h.139a4.584 4.584 0 0 0 2.873-1.255c1.944-1.712 3.446-5.034 4.1-9.11q.132-.819.215-1.675c.023-.244.045-.487.061-.731a3.4 3.4 0 0 1 .084.746c0 .978.91 1.2 1.745 1.2a6.483 6.483 0 0 0 1.284-.144l.069-.015h.206c-.031.266-.068.541-.114.814a25.1 25.1 0 0 1-.746 3.342 17.314 17.314 0 0 1-2.6 5.464 10.39 10.39 0 0 1-1.21 1.362 8.355 8.355 0 0 1-.67.556l-.053.045c-.122.091-.245.175-.366.254s-.225.14-.335.2l-.038.03a6.471 6.471 0 0 1-.67.335h-.007l-.011.005c-.072.03-.144.06-.215.086h-.019a5.66 5.66 0 0 1-1.995.371" class="prefix__cls-8" transform="translate(-157.852 634.405)"/>
            <path id="prefix__path396" d="M346.114-102.674a17.313 17.313 0 0 1-2.6 5.464 10.422 10.422 0 0 1-1.21 1.362 8.381 8.381 0 0 1-.67.556l-.053.045c-.236.153-.472.3-.7.457l-.038.03a5.849 5.849 0 0 1-2.991.814 6.1 6.1 0 0 1-3.4-1.072 8.105 8.105 0 0 1-1.385-1.165c-.289-.319-.662-.761-.929-1.1a12.254 12.254 0 0 1-.7-1.058 17.607 17.607 0 0 1-1.324-2.786c-.03-.084-.495-1.37-.723-2.29-.091-.4-.175-.754-.252-1.1-.167-.76-.289-1.469-.41-2.4l-.045-.381a2.645 2.645 0 0 1 .266-.076c5.594-1.476 13.411-.64 14.575-.5.091.008.145.015.145.015a10.082 10.082 0 0 1 2.443 5.2" class="prefix__cls-12" transform="translate(-157.563 634.078)"/>
            <path id="prefix__path398" d="M343.686-125.827c.008.555-.007 1.11-.036 1.651-.344 7.138-3.317 12.778-6.993 12.91-3.755.131-6.889-5.553-7.247-12.91-.022-.38-.037-.767-.037-1.155-.065-7.905 3.084-14.422 7.036-14.561s7.212 6.159 7.277 14.065" class="prefix__cls-11" transform="translate(-157.967 648.9)"/>
            <path id="prefix__path400" d="M343.686-125.827c.008.555-.007 1.11-.036 1.651-.344 7.138-3.317 12.778-6.993 12.91-3.755.131-6.889-5.553-7.247-12.91-.022-.38-.037-.767-.037-1.155-.065-7.905 3.084-14.422 7.036-14.561s7.212 6.159 7.277 14.065z" transform="translate(-157.967 648.9)" style="stroke:#ee2b3a;stroke-width:4.295px;fill:none;stroke-miterlimit:10"/>
            <path id="prefix__path402" d="M509.506-46.747l-.036-.057-.035-.059-.034-.061-.033-.062-.031-.064-.029-.065-.028-.066-.025-.067-.022-.067-.019-.067-.017-.066-.014-.066-.011-.065-.008-.063-.007-.062v-.06.06l.007.062.008.063.011.065.014.066.017.066.019.067.022.067.025.067.028.066.029.065.031.064.033.062.034.061.035.059.036.057" class="prefix__cls-5" transform="translate(-223.935 605.751)"/>
            <path id="prefix__path404" d="M156.686-85.663a8.9 8.9 0 0 0-9.134-8.6h-52.9a8.9 8.9 0 0 0-9.133 8.6 8.9 8.9 0 0 0 9.133 8.6h52.9a8.9 8.9 0 0 0 9.134-8.6" class="prefix__cls-12" transform="translate(-72.647 627.526)"/>
        </g>
    </g>
</svg>
