<svg xmlns="http://www.w3.org/2000/svg" width="14.316" height="16" viewBox="0 0 14.316 16">
    <defs>
        <style>
            .prefix__cls-1{fill:#6c63ff}
        </style>
    </defs>
    <g id="prefix__Group_3955" data-name="Group 3955" transform="translate(391.717 150.48)">
        <path id="prefix__Path_328" d="M-317.939-150.48a8.157 8.157 0 0 1 1.19.3 4.034 4.034 0 0 1 2.592 3.208 4.142 4.142 0 0 1-2.1 4.291 4.152 4.152 0 0 1-4.72-.512 3.988 3.988 0 0 1-1.4-3.575 4 4 0 0 1 2.587-3.4 8.191 8.191 0 0 1 1.219-.309z" class="prefix__cls-1" data-name="Path 328" transform="translate(-66.307)"/>
        <path id="prefix__Path_329" d="M-384.587 55.33a8.143 8.143 0 0 1-4.913-1.63 8.232 8.232 0 0 1-2.127-2.326.425.425 0 0 1-.052-.428 5.125 5.125 0 0 1 3.564-2.918c.1-.025.205-.035.306-.059a.85.85 0 0 1 .72.159 4.316 4.316 0 0 0 2.736.794 3.8 3.8 0 0 0 2.128-.674 1.482 1.482 0 0 1 1.4-.179 5.238 5.238 0 0 1 3.182 2.45c.321.534.333.546-.01 1.062a8.274 8.274 0 0 1-3.265 2.9 8.281 8.281 0 0 1-3.669.849z" class="prefix__cls-1" data-name="Path 329" transform="translate(0 -189.81)"/>
    </g>
</svg>
