<svg xmlns="http://www.w3.org/2000/svg" width="16" height="15.964" viewBox="0 0 16 15.964">
    <g id="prefix__call-answer" transform="translate(0 -16.394)">
        <g id="prefix__Group_3994" data-name="Group 3994" transform="translate(0 16.394)">
            <g id="prefix__Group_3993" data-name="Group 3993">
                <path id="prefix__Path_5957" d="M15.641 13.02l-2.471-2.471a1.288 1.288 0 0 0-1.817.034l-1.245 1.245-.246-.137a12.388 12.388 0 0 1-2.993-2.166 12.457 12.457 0 0 1-2.17-3c-.046-.083-.09-.164-.134-.24l.835-.833.411-.411a1.287 1.287 0 0 0 .033-1.817L3.373.752a1.287 1.287 0 0 0-1.816.034l-.7.7.019.019a4.027 4.027 0 0 0-.571 1.013A4.2 4.2 0 0 0 .05 3.545c-.326 2.7.91 5.177 4.264 8.531 4.637 4.637 8.374 4.286 8.535 4.269a4.175 4.175 0 0 0 1.03-.259 4.013 4.013 0 0 0 1.009-.571l.015.014.705-.691a1.29 1.29 0 0 0 .033-1.818z" data-name="Path 5957" transform="translate(0 -.394)" style="fill:#6c63ff"/>
            </g>
        </g>
    </g>
</svg>
